<svg width="500" height="500" fill="none" xmlns="http://www.w3.org/2000/svg"><path d="m75.138 1.866-3.983 3.086-12.596 7.4-6.56 7.32-5.994 6.189a.746.746 0 0 1-.202.149l-8.626 4.32-6.714 2.505-5.775 2.986-4.5 4.776-1.202 2.234v4.596l5.22 9.1 1.977 3.053 7.19 6.65 5.269 4.287 5.268 3.67 9.893 5.51c.066.04.131.087.178.144l4.644 4.94 8 9.91 9.983 13.602 4.643 6.164c.036.05.066.103.09.158l1.988 4.936c.03.08.047.163.047.249v6.169l-1.333 8.13-1.316 11.575 1.304 5.44 2.619 6.064 3.851 5.954 5.87 4.239 7.726 3.575 4.524.603a.743.743 0 0 1 .286.094l3.316 1.853 4.44 2.945 3.673-.57a.714.714 0 0 1 .482.072l19.912 9.875a.75.75 0 0 1 .238.183l2.655 3.086 8.715 16.165 3.286 4.884a.685.685 0 0 1 .083.18l1.327 4.319a.7.7 0 0 1 .03.193v6.786l1.322 9.162.625 2.3 3.274 5.473 5.893 6.683 7.971 9.262 6.072 11.862 2.66 5.57 5.274 8.575 6.632 10.483a.606.606 0 0 1 .101.296l.66 6.673 2.56 5.362 2.596 3.014 1.905 2.364 5.833 3.011 9.876 3.664 15.328 7.436 6.095 4.389 7.929 6.755 3.887 1.808 11.918 4.923a.804.804 0 0 1 .166.094l3.322 2.466 10.483 4.859 5.875 1.811 10.114 5.616 10.53 4.278 6.673 3.103 4.066 2.514a.787.787 0 0 1 .172.146l5.31 6.17 4.697 6.852 7.786 7.826 2.28 1.059 2.137-.498 3.065-3.423 1.244-3.468v-4.624l-1.881-2.92-4.012-7.452-2.702-8.761-7.233-11.561-3.899-4.212-5.232-4.247-7.316-6.183-4.012-3.725a.707.707 0 0 1-.167-.246l-3.315-8.022-.697-2.55-.024-6.96 1.334-13.638 2.649-7.456v-15.93l2.672-11.26 6.019-13.086 4.69-7.48 6.024-7.472a.736.736 0 0 1 .203-.177l5.309-3.086 3.846-3.603 7.929-8.6 10.578-14.136 10.661-11.774 3.28-4.275a.722.722 0 0 1 .196-.177l3.989-2.47a.828.828 0 0 1 .238-.097l2.655-.616a.865.865 0 0 1 .279-.017l5.311.617 4.547-.006 6.715.623a.848.848 0 0 1 .202.046l6.512 2.417h3.518l1.679-1.562 1.941-3.601 2.738-3.21 1.161-2.193v-2.104l-1.887-2.918-4.56-4.836-9.864-7.317-3.387-3.138a1.105 1.105 0 0 1-.143-.186l-.66-1.233a.64.64 0 0 1-.072-.393l.661-5.553 1.334-6.232-.012-15.287 1.321-4.994-.655-7.289v-3.144l2-10.614-.012-7.784-1.285-3.592-1.953-3.611-2.696-8.13a.606.606 0 0 1-.036-.207v-6.067l-1.965-6.07-1.315-3.684-2.685-13.671-1.286-2.95-.702-3.211-.012-15.563c0-.152.054-.302.155-.423l1.911-2.378 1.958-5.445 3.352-6.264 1.934-7.867L389.171 0H368.27l.532 4.955a.641.641 0 0 1-.006.186l-.661 3.702-1.345 4.397a.776.776 0 0 1-.096.199l-2.655 3.703-1.166 2.176.577 2.69 1.887 2.337c.06.07.101.15.125.233l1.328 4.319 2 8.058a.737.737 0 0 1 .006.296l-.661 3.086-4.006 11.8-2 5.563-1.274 5.95 1.304 6.657 3.291 8.528 3.334 12.408a.686.686 0 0 1 0 .343l-.661 2.47-3.316 14.78-4.006 10.582-1.291 9.726-2.65 8.649v4.737l1.257 4.093 7.113 8.409 9.816 4.87 7.947 3.692c.119.055.22.138.298.24l1.327 1.853a.674.674 0 0 1 .125.392v4.936a.572.572 0 0 1-.042.224l-.666 1.853c-.108.313-.387.526-.798.481l-6.536-.611-3.881.603a.62.62 0 0 1-.25 0l-3.983-.62-12.572-4.288-4.453.591-5.845 1.823-7.917 2.831.405 1.118 1.107 1.548 2.369.55 6.739 2.495c.065.027.13.061.19.105l3.322 2.469c.131.097.22.232.262.382l.66 2.469c.03.113.03.229 0 .343l-1.327 4.936a.68.68 0 0 1-.25.373l-3.983 3.084-8.685 5.591-13.393 5.616-4.518 3.017-2.399 2.246-1.286 5.356a.865.865 0 0 1-.107.238l-1.327 1.85-1.423 1.341-1.768 2.204v4.084c0 .08-.018.16-.042.238l-3.321 8.639-1.953 12.208-2.667 10.55-2 7.411-3.97 19.705-3.31 8.647-.661 12.853v11.075l1.983 10.364 1.91 4.72 3.917 4.854 2.042 3.146 3.869 3.565a.681.681 0 0 1 .221.5v2.47l-.691 2.641a.702.702 0 0 1-.316.417l-1.988 1.234a.812.812 0 0 1-.547.11l-3.983-.617-3.339-1.227h-2.512a.828.828 0 0 1-.411-.111l-14.602-8.639-23.108-8.578-6.114-3.771-7.238-3.667-6.613-3.075-5.245-1.822-8.083-4.372a.725.725 0 0 1-.179-.139l-5.971-6.169-3.994-4.33-4.512-2.973a.716.716 0 0 1-.31-.437l-1.291-6.023-4.56-6.05-12.548-12.889a.702.702 0 0 1-.114-.158l-3.321-6.169-1.393-5.721-.018-4.472-1.934-7.12-9.233-13.481a.706.706 0 0 1-.107-.241l-.661-3.086-7.917-17.753-.685-1.905-2.619-4.845-1.333-4.311-15.18-18.405-4.666-6.195-3.935-4.264-3.953-4.9-5.899-4.261-2.06-1.908-2.107-3.224-3.369-7.497-1.97-3.656-8.537-9.745-2.726-4.413a.64.64 0 0 1-.077-.166l-1.935-6.606-1.184-1.101-1.876-1.144a.717.717 0 0 1-.256-.272l-.666-1.233a.663.663 0 0 1-.084-.26l-.643-7.223-5.202-7.253-9.953-13.57-17.167-15.941-4.75-6.91-7.864-7.281-4.548-3.012-5.274-3.061a.849.849 0 0 1-.232-.207l-3.983-5.553a.667.667 0 0 1-.125-.393v-3.086l-.648-3.586a.673.673 0 0 1 .172-.578l3.982-4.32a.767.767 0 0 1 .185-.143l3.316-1.85a.697.697 0 0 1 .19-.078l11.804-3.047 11.828-8.553 12.703-6.844 9.834-7.942 16.584-10.486 3.917-4.25L117.134 0H76.517l-1.23 1.714a.93.93 0 0 1-.15.152Z" fill="#000"/><path d="M111.735 7.339a.806.806 0 0 1-.149.124L94.99 17.952l-9.882 7.97-12.733 6.869-11.857 8.583a.793.793 0 0 1-.262.121L48.398 44.56l-3.12 1.74-3.672 3.982.601 3.376.012 2.987 3.762 5.248 5.173 3.006 4.685 3.111 8.066 7.477 4.75 6.91L85.811 98.32l10.048 13.677 5.316 7.411a.7.7 0 0 1 .125.335l.648 7.267.506.945 1.822 1.129 1.446 1.322a.693.693 0 0 1 .203.315l1.958 6.7 2.608 4.242 8.559 9.781 2.084 3.83 3.339 7.449 1.941 2.995 1.875 1.712 5.911 4.261a.553.553 0 0 1 .137.136l3.983 4.938 3.952 4.281 4.691 6.225 15.25 18.491a.694.694 0 0 1 .126.235l1.327 4.32 2.601 4.814.709 1.941 3.303 7.367 4.643 10.483.679 3.086 9.221 13.464a.67.67 0 0 1 .095.207l1.988 7.406.024 4.491 1.31 5.403 3.214 5.918 12.536 12.886 4.709 6.241c.06.08.101.172.125.268l1.268 5.896 4.399 2.923 4.119 4.433 5.882 6.075 7.863 4.264 5.197 1.8 6.708 3.117 7.322 3.711 6.036 3.735 23.097 8.57 14.536 8.589h2.435c.095 0 .19.017.286.05l3.321 1.236 3.524.531 1.494-.927.595-2.204-.023-2.002-3.762-3.495-2.107-3.221-3.935-4.876a.552.552 0 0 1-.107-.177l-1.989-4.938-2.03-10.614-.011-11.232.666-12.991a.804.804 0 0 1 .042-.205l3.316-8.639 3.952-19.639 2.006-7.444 2.649-10.483 1.976-12.283 3.316-8.656v-4.197c0-.152.054-.302.155-.423l1.988-2.47 1.393-1.31 1.155-1.629 1.304-5.431a.681.681 0 0 1 .202-.346l2.655-2.467 4.744-3.16 13.399-5.622 8.513-5.492 3.738-2.898 1.221-4.541-.554-2.065-3.03-2.254-6.536-2.428-2.554-.589a.764.764 0 0 1-.452-.293l-1.328-1.853a.612.612 0 0 1-.083-.168l-.667-1.85c-.131-.36.066-.75.447-.885l8.631-3.086 6.012-1.861 4.774-.647a.876.876 0 0 1 .375.036l12.608 4.316 3.721.57 3.857-.6a.685.685 0 0 1 .202-.008l6.03.564.435-1.209v-4.607l-1.089-1.515-7.78-3.617-9.977-4.947a.739.739 0 0 1-.238-.183l-2.655-3.083-4.655-5.564a.642.642 0 0 1-.131-.24l-1.328-4.32a.7.7 0 0 1-.029-.193v-4.936c0-.066.011-.13.029-.194l2.655-8.639 1.304-9.766 4.018-10.638 3.298-14.717.619-2.326-3.268-12.17-3.304-8.572-1.357-6.9a.66.66 0 0 1 0-.265l1.327-6.17 2.024-5.638 3.977-11.713.607-2.862-1.953-7.876-1.28-4.156-1.904-2.361a.677.677 0 0 1-.143-.288l-.661-3.086a.697.697 0 0 1 .066-.454l1.327-2.47 2.637-3.688 1.298-4.212.625-3.53L366.744 0h-24.776l.874 1.626c.03.055.047.113.06.177l1.333 6.17.673 4.985.005 9.347 1.328 19.08-.661 7.51.661 14.103a.844.844 0 0 1-.024.213l-2.655 9.256-.684 1.894-3.977 6.802-1.303 6.676-.673 2.513-.643 7.906.667 8.534-1.328 17.382.655 4.165 1.97 6.703 3.268 6.039 1.388 5.716.017 7.558a.7.7 0 0 1-.285.553l-6.638 4.936-7.232 6.736a.838.838 0 0 1-.244.149l-4.471 1.781-2.535 2.948-1.882 2.337-.571 2.107 1.238 2.873.584 1.076 1.244 1.155 1.869 1.145a.72.72 0 0 1 .315.418l.667 2.469.024 3.872-.679 3.818-.684 1.961a.724.724 0 0 1-.304.365l-1.994 1.233-10.024 4.972-3.917 2.434-4.685 2.491-1.887.597-1.185 1.651-1.196 2.829v6.651l-1.34 7.521-1.321 8.622-1.994 9.295.012 6.033 1.321 9.156a.792.792 0 0 1-.006.238l-.673 3.086.018 14.053-2 9.394-1.345 4.374a.684.684 0 0 1-.196.307l-1.215 1.128-1.929 4.793-3.964 7.377-.619 3.424 1.268 3.537 1.357 7.51a.51.51 0 0 1 0 .233l-.661 3.702-2.024 5.661a.658.658 0 0 1-.178.276l-1.988 1.853a.812.812 0 0 1-.881.133l-2.655-1.234-4.131-3.174-3.834-1.764-9.167-2.42-9.34-3.1-3.453-1.911-5.893-2.428-4.714-2.499a.787.787 0 0 1-.28-.258l-4.649-7.405-3.899-4.214-2.738-4.43-6.56-7.303-2.53-1.74-5.352-4.352a.796.796 0 0 1-.154-.169l-1.994-3.083-5.965-8.622-3.357-6.239-4.703-17.421-1.917-5.343-3.857-3.583a.836.836 0 0 1-.125-.158l-7.304-12.344-3.274-4.247-4.048-7.503-1.958-3.039-5.929-7.339-6.614-7.378-6.654-8.044-3.959-4.289-5.988-6.802-4.03-5.608-2.614-3.037-3.417-6.938-2.643-4.913-2.041-6.281-1.977-4.891-2.625-4.872-1.351-3.136-3.256-4.829-6.655-11.135-1.346-2.497-6.012-16.128-3.31-8a.644.644 0 0 1-.053-.254v-1.637l-1.113-1.554-1.673-1.037h-3.09a.796.796 0 0 1-.339-.075l-1.327-.616-13.923-6.164a.693.693 0 0 1-.352-.324l-3.321-6.172-1.381-4.44a.71.71 0 0 1-.03-.194v-9.256c0-.152.054-.301.155-.425l5.976-7.406 4.012-4.355 5.983-6.18a.799.799 0 0 1 .184-.142l4.65-2.47 6.041-2.499 8.096-1.891 7.857-3.053 7.227-3.672 6.572-4.278 2.631-1.836 4.661-3.095 17.924-11.727 13.262-6.172L172.351.82 173.668 0h-54.246l-3.782 3.091-3.905 4.248Z" fill="#000"/><path d="M33.356 12.327 16.033 24.716 0 33.665v25.361l11.944 5.847a.959.959 0 0 1 .184.125l6.638 6.169 7.274 6.15 12.53 7.961 8.715 7.466 6.637 5.55 4.757 6.288 5.333 8.058c.06.086.095.183.107.282l.667 4.937-.66 8.165-.668 6.186a.619.619 0 0 1-.077.249l-3.322 6.169-1.964 4.281-1.256 4.693.607 3.982 3.774 4.09 3.893 2.411 6.06 4.997 4.631 3.694 8.655 7.422 3.804 2.348 3.881 1.203a.798.798 0 0 1 .197.091l6.637 4.319 7.959 4.928 4.762 4.408a.66.66 0 0 1 .155.213l2.655 5.553 3.333 8.055 3.804 5.271 7.131 3.619 5.358 3.106c.13.077.238.193.297.329l3.316 7.405 2.012 10.481 6.536 8.508 6.601 7.361 6.656 8.044a.719.719 0 0 1 .107.169l1.268 2.951 3.214 2.984a.76.76 0 0 1 .167.237l2.655 6.17 1.351 4.388 3.304 8.594.69 3.186.018 3.225 1.97 7.864 1.28 4.165 3.191 4.144 3.792 2.943 3.845 1.192 2.602.602 4.137 1.906 4.607 1.833a.726.726 0 0 1 .185.103l7.297 5.552 5.286 3.684 11.864 6.119a.686.686 0 0 1 .197.147l5.97 6.169 6.548 4.856 5.143 3.581 4.447.592 3.214-.009 3.167-.603c.09-.011.179-.013.256-.005l4.649.617 8.799 3.124 2.72 1.261 11.381 7.461 6.007 4.339 4.613 3.069 10.489 4.245 14.054 8.699a.69.69 0 0 1 .292.349l2.654 6.788 1.375 8.78 1.274 4.726 1.81 2.248 6.982 4.132 11.704-.609h10l11.328.62 5.679-.598 2.869-1.598.607-3.985-.006-4.12-2.589-8.418-3.893-4.831-4.667-6.191-4.679-7.455-7.256-9.195-10.614-12.946-3.947-5.506-12.53-9.809-3.304-2.455a.83.83 0 0 1-.131-.127l-3.988-4.936a.71.71 0 0 1-.155-.382l-.661-9.875 1.334-13.069 1.315-5.544-.66-11.631-1.316-6.066-.012-8.78.685-3.222a.684.684 0 0 1 .202-.362l1.988-1.853 4.697-3.739 9.959-5.566 4.464-4.745 1.947-5.417 1.976-6.15 2.072-3.25 6.066-6.277 7.934-9.225 12.037-9.96 8.56-9.192a.82.82 0 0 1 .155-.124l1.988-1.234a.758.758 0 0 1 .178-.083l5.977-1.852a.745.745 0 0 1 .19-.034l9.293-.616 6.03-.003 6.339-1.192 3.858-2.392 4.327-4.048.643-7.146 1.322-9.186-1.31-7.3-1.982-7.348-2.673-16.107-.006-10.6-.649-2.945-.012-2.607.685-2.641a.73.73 0 0 1 .631-.528l8.637-1.151v-16.66l-.661-18.489-2.625-8.467-2.018-18.638-2.643-11.025-.678-9.36v-4.818l-2.578-4.787a.75.75 0 0 1-.071-.226l-.667-4.936a.681.681 0 0 1 .06-.377l2.654-5.555a.78.78 0 0 1 .197-.246l5.31-4.32 9.256-8.605L427.744 0h-36.918l-2.16 4.687-1.953 7.903-3.375 6.327-1.958 5.461a.574.574 0 0 1-.113.2l-1.834 2.28v15.19l.649 2.948 1.286 2.962 2.696 13.71 1.298 3.606 2.006 6.189c.018.066.03.135.03.205v6.066l2.619 7.92 1.946 3.595 1.364 3.791a.59.59 0 0 1 .041.224v8.022l-2 10.613.012 2.965.661 7.344a.597.597 0 0 1-.024.23l-1.327 4.939.023 15.253-1.339 6.31-.631 5.285.506.945 3.238 3.004 9.894 7.352 4.738 5.025 2.078 3.186c.071.11.107.237.107.364v2.467c0 .111-.03.219-.078.315l-1.327 2.47-2.744 3.213-1.911 3.578a.858.858 0 0 1-.137.183l-1.988 1.85a.802.802 0 0 1-.542.207h-3.982a.87.87 0 0 1-.286-.05l-6.542-2.43-6.53-.609-4.566.003-5.262-.606-2.387.556-3.762 2.329-3.239 4.214-10.655 11.769-10.584 14.139-8.012 8.697-4.018 3.741-5.328 3.114-5.887 7.3-4.595 7.336-5.935 12.884-2.614 10.981.018 15.889a.574.574 0 0 1-.041.224l-2.655 7.405-1.292 13.415.006 6.725.643 2.295 3.232 7.798 3.87 3.598 7.274 6.15 5.298 4.308 4.059 4.391 7.388 11.83 2.726 8.799 3.929 7.281 1.964 3.042a.65.65 0 0 1 .107.362v4.936a.593.593 0 0 1-.041.224l-1.328 3.703a.617.617 0 0 1-.137.229l-3.316 3.703a.753.753 0 0 1-.398.232l-2.655.617a.791.791 0 0 1-.524-.053l-2.655-1.233a.757.757 0 0 1-.22-.152l-7.965-8.022-4.732-6.891-5.191-6.02-3.881-2.409-6.554-3.042-10.584-4.302-10.048-5.595-5.822-1.786-10.72-4.977-3.382-2.489-11.857-4.9-4.013-1.867a.828.828 0 0 1-.178-.11l-7.965-6.786-5.929-4.284-15.143-7.336-9.894-3.672-6.06-3.125a.706.706 0 0 1-.238-.196l-1.988-2.467-2.643-3.067a.56.56 0 0 1-.101-.155l-2.655-5.552a.578.578 0 0 1-.059-.224l-.655-6.631-6.548-10.353-5.316-8.647-2.691-5.617-5.97-11.708-13.834-15.9-3.399-5.658a.836.836 0 0 1-.072-.171l-.666-2.47-1.346-9.332-.006-6.781-1.267-4.129-3.262-4.856-8.668-16.099-2.464-2.845-19.549-9.693-3.726.578a.752.752 0 0 1-.566-.121l-4.649-3.086-3.137-1.748-4.494-.597a.716.716 0 0 1-.232-.067l-7.965-3.703-6.108-4.393a.75.75 0 0 1-.184-.194l-3.982-6.169-2.709-6.275-1.363-5.66a.58.58 0 0 1-.012-.227l1.328-11.73 1.327-8.053-.006-5.931-1.905-4.734-4.595-6.098-9.965-13.583-7.94-9.844-4.53-4.815-9.858-5.494-5.376-3.744-5.351-4.353-7.346-6.82-2.107-3.22-5.328-9.29a.655.655 0 0 1-.09-.331v-4.939c0-.11.03-.218.084-.315l1.328-2.467a.48.48 0 0 1 .107-.152l4.65-4.936a.723.723 0 0 1 .201-.152l5.977-3.086 6.72-2.508 8.435-4.225 5.887-6.078 6.62-7.386a.679.679 0 0 1 .178-.147L70.256 3.81 74.078.843 74.683 0H48.89l-4.373 2.541-11.161 9.786Z" fill="#000"/><path d="M22.04 8.647 5.378 19.188 0 21.968v10.048l15.176-8.467 17.192-12.297 11.22-9.825L46.03 0H32.677l-1.298 1.205-9.34 7.442ZM197.328 16.016l-14.619 12.97-23.252 19.149-15.304 11.133-13.888 12.294-3.791 4.72-.578 2.691 3.869 7.19 2.685 6.86 1.333 3.72 3.352 16.135 3.304 11.678 1.976 5.509 1.982 4.913 5.232 7.259 11.965 17.917 3.25 3.619 11.942 12.953 9.965 11.113 7.345 9.928 9.257 10.438 9.94 10.475 3.257 3.631 7.203 4.262a.788.788 0 0 1 .19.16l7.298 8.639 3.339 4.344 4.691 7.458 3.381 10.021a.618.618 0 0 1 .036.21v1.85l1.315 7.29 1.953 6.631 2.607 4.242 1.941 3.608 4.53 3.609 3.863 1.681 5.101-4.145 3.233-3.622 1.887-1.759.536-1.986-6.471-9.617-4.661-7.425-3.238-3.606-2.732-4.422a.706.706 0 0 1-.09-.212l-.66-3.086-.673-4.359a.783.783 0 0 1 .006-.237l.66-3.086a.847.847 0 0 1 .108-.241l4.649-6.786 3.238-5.434 1.97-7.925.649-5.47a.594.594 0 0 1 .077-.24l2.655-4.934a.729.729 0 0 1 .197-.229l3.982-3.086 10.084-5.016 3.828-2.379 3.917-4.247 2.381-2.763-.53-1.487-5.298-12.303-2.607-6.659-3.203-2.975-4.048-5.011a.661.661 0 0 1-.148-.337l-.661-4.936a.682.682 0 0 1 .071-.404l2.655-4.939 2.703-3.78a.817.817 0 0 1 .214-.196l3.982-2.467 5.876-3.039 3.22-4.189 1.185-2.221v-6.282l-3.03-2.257a.723.723 0 0 1-.232-.29l-1.334-3.083a.646.646 0 0 1-.03-.435l.667-2.469a.617.617 0 0 1 .101-.221l2.655-3.703 1.917-2.37.595-2.765-1.947-6.628c-.011-.061-.023-.122-.023-.186v-8.638l1.333-9.35 1.334-6.216 1.315-3.08V71.05l-1.315-7.29L291 54.022a.708.708 0 0 1-.048-.249v-2.986l-1.297-4.226-.691-4.413-.006-6.885.691-2.641a.718.718 0 0 1 .083-.194l3.982-6.17 3.388-3.79 2.696-2.517 5.22-3.65 1.215-2.812.655-5.456a.571.571 0 0 1 .077-.238l1.244-2.317v-3.37L307.076 0h-20.365l-.217 1.421-1.339 5.608-2.685 6.874-1.334 3.109-2.047 3.188-4.025 3.77-2.607 4.238-1.946 4.248-.619 3.54.012 9.023 1.285 3.594 1.286 2.376 1.286 1.775a.677.677 0 0 1 .125.392v11.109l-1.958 7.372 1.256 3.51a.6.6 0 0 1 .041.223v4.936a.6.6 0 0 1-.041.224l-1.328 3.703a.636.636 0 0 1-.083.168l-2.655 3.703-2.75 2.577-6.584 7.954-3.899 4.23-1.28 4.17-.637 6.045a.686.686 0 0 1-.071.246l-3.935 7.312-.649 3.597a.63.63 0 0 1-.083.23l-5.971 9.872-3.994 6.191-3.44 3.219-3.096 3.459v3.288l5.244 10.348a.658.658 0 0 1 .072.301v1.021l3.792 5.287 3.899 3.02 6.542 3.642 1.714.514h4.215l1.601-1.491.625-2.875a.71.71 0 0 1 .351-.471l3.322-1.85a.848.848 0 0 1 .393-.099h1.988l3.172-.606c.304-.041.62.067.786.302l3.983 5.555 2.053 4.433c.036.088.06.182.06.279v5.553l-.667 6.852a.644.644 0 0 1-.179.398l-3.982 4.32-8.607 6.78-3.257 5.442a.724.724 0 0 1-.243.246l-3.983 2.467-9.459 3.164a.817.817 0 0 1-.256.041c-.03 0-.059-.003-.089-.005l-17.257-1.851a.907.907 0 0 1-.238-.061l-11.286-4.938c-.054-.028-.113-.058-.161-.097l-7.965-6.169-2.113-2.588-4.53-3.593-12.661-11.757-11.31-11.753-5.911-4.881a.65.65 0 0 1-.173-.213l-3.268-6.067-1.244-1.153a.83.83 0 0 1-.125-.157l-3.316-5.553-11.911-15.983a.643.643 0 0 1-.101-.194l-3.316-9.875-5.322-18.538-.672-3.131-3.292-8.539-1.357-6.899a.651.651 0 0 1-.006-.216l1.327-9.872a.733.733 0 0 1 .107-.287l3.316-4.936a.777.777 0 0 1 .464-.31l2.435-.567 7.81-7.867 10.685-8.691 16.56-14.789 18.638-14.227 3.923-3.656 12.001-9.3 13.988-9.285 6.739-3.145 3.375-1.26L242.929 0h-18.715l-18.343 8.074-8.543 7.942Z" fill="#000"/><path d="M171.44 3.675a.752.752 0 0 1-.202.133l-13.275 6.169-22.465 14.753-2.637 1.841-6.667 4.333-7.37 3.745-8.036 3.116-8.078 1.886-5.845 2.428-4.476 2.38-5.888 6.085-3.97 4.308-5.792 7.178v8.921l1.297 4.226 3.155 5.832 14.876 6.611h3.143c.15 0 .298.042.423.12l1.988 1.235a.814.814 0 0 1 .214.197l1.328 1.85a.67.67 0 0 1 .125.392v1.718l3.268 7.9 5.988 16.066 1.292 2.386 6.619 11.078 3.298 4.909 1.387 3.193 2.631 4.887 2.024 5.002 2.012 6.214 2.602 4.822 3.333 6.814 2.554 2.937 4.024 5.602 5.929 6.734 3.97 4.305 6.661 8.052 6.619 7.384 6.001 7.43 2.036 3.15 4.012 7.452 3.256 4.223 7.298 12.322 3.911 3.633a.668.668 0 0 1 .178.277l1.989 5.553 4.666 17.33 3.263 6.028 5.934 8.572 1.941 3.006 5.22 4.245 2.614 1.819 6.762 7.519 2.732 4.422 3.899 4.209 4.625 7.347 4.471 2.372 5.905 2.437 3.399 1.891 9.155 3.025 9.251 2.453 4.113 1.9 4.131 3.174 2.012.918 1.476-1.374 1.941-5.395.607-3.479-1.303-7.286-1.298-3.595a.601.601 0 0 1-.03-.34l.667-3.703a.787.787 0 0 1 .065-.199l3.983-7.405 1.958-4.87a.765.765 0 0 1 .179-.252l1.19-1.106 1.274-4.142 1.97-9.2-.011-14.053.654-3.106-.649-4.2-.66-4.947-.006-6.261 2-9.393 1.321-8.6 1.334-7.423-.012-6.669c0-.092.018-.18.053-.263l1.328-3.086 1.405-1.98a.724.724 0 0 1 .387-.279l1.994-.62 4.506-2.408 3.941-2.445 10.024-4.972 1.708-1.062.578-1.623.643-3.595-.012-3.584-.572-2.029-1.744-1.084-1.446-1.325a.763.763 0 0 1-.137-.182l-.667-1.233-1.357-3.142a.643.643 0 0 1-.03-.434l.667-2.467a.6.6 0 0 1 .131-.251l1.982-2.47 2.673-3.105a.72.72 0 0 1 .297-.208l4.513-1.797 7.191-6.692 6.416-4.776v-7.065l-1.309-5.398-3.256-6.009-2.042-6.918-.685-4.405 1.322-17.424-.667-8.542.667-8.127.684-2.586 1.316-6.742a.719.719 0 0 1 .083-.213l3.983-6.788.613-1.737 2.607-9.109-.655-14.083.661-7.494-1.327-19.025v-9.303l-.655-4.847-1.304-6.026L340.263 0h-17.221l-.023.107.649 4.201-.66 13.09v4.907l.666 7.344a.715.715 0 0 1-.012.197l-1.994 9.257-.643 5.396 1.31 7.308-.655 7.577.661 5.42a.594.594 0 0 1-.024.271l-2.655 8.639-.649 3.03-1.315 16.573v4.27l.66 4.847 1.947 4.776c.03.08.048.163.048.249v6.788a.753.753 0 0 1-.03.202l-1.988 6.169-1.322 6.106.018 1.098 1.322 7.289.666 6.217a.623.623 0 0 1-.035.293l-1.995 5.552a.668.668 0 0 1-.178.277l-9.292 8.639-4.584 5.488-1.25 2.348-1.125 3.703 1.53.948a.82.82 0 0 1 .214.197l1.321 1.85 4.072 10.649c.03.074.042.155.042.235v10.489a.665.665 0 0 1-.155.423l-1.988 2.469-3.393 3.161a.73.73 0 0 1-.25.157l-3.316 1.237-4.03 1.247-3.167 1.786-2.589 1.811-3.238 3.02a.792.792 0 0 1-.203.133l-3.982 1.85-3.268 1.216-3.018 2.246-.601 2.831.012 7.151 1.256 3.504 2.601 3.622a.617.617 0 0 1 .083.169l1.328 3.703.696 6.327.006 6.238a.714.714 0 0 1-.036.224l-.66 1.853a.772.772 0 0 1-.119.202l-5.9 7.308-.499 1.403 3.017 3.932 7.203 4.869a.68.68 0 0 1 .274.349l2.655 7.405a.601.601 0 0 1 .03.34l-1.994 11.105-2.024 5.072a.845.845 0 0 1-.173.252l-4.649 4.319-6.703 4.989-4.577 4.266-3.953 4.281a.692.692 0 0 1-.185.144l-3.315 1.85-2.143.686a.813.813 0 0 1-.667-.083l-1.988-1.236a.82.82 0 0 1-.214-.197l-1.328-1.85-3.387-7.527-2.03-8.135-5.196-10.232-7.882-7.319a.828.828 0 0 1-.172-.249l-5.31-12.958-4.607-11.645-4.596-6.097-5.173-6.612-3.113-1.159-4.566-2.417h-3.119a.816.816 0 0 1-.393-.102l-3.315-1.852a.773.773 0 0 1-.268-.249l-4.65-7.403-18.488-19.011-5.405-8.764-9.918-12.897-5.923-6.111-6.048-8.73-9.25-11.053-2.732-5.055a.595.595 0 0 1-.072-.199l-.666-3.702-3.953-11.001-5.268-9.778-4.024-11.202-7.281-15.366-7.946-14.15-5.977-11.12-2.053-8.18a.684.684 0 0 1 .006-.328l.66-2.467a.717.717 0 0 1 .28-.396l5.316-3.702a.787.787 0 0 1 .196-.1l7.298-2.47 7.941-1.846 13.846-7.356 7.322-3.71 7.869-5.498 10.596-8.006 15.953-11.125 5.846-6.667 8.643-9.274L195.491 0H176.4l-3.085 1.91-1.875 1.765ZM490.748 499.38l-13.869-.613-15.299-1.236-6.72-1.245-14.626-3.089-23.085-3.677-5.196.602c-.072 0-.149.003-.209-.002l-13.274-1.85-11.173.008-5.888.611a.77.77 0 0 1-.506-.113l-1.994-1.234a.714.714 0 0 1-.303-.365l-.661-1.852-3.137-7.605-8.655-1.147-3.131 1.164-7.959 3.08-12.037 3.117-5.94 1.839-5.28 1.844a.87.87 0 0 1-.268.044h-8.489l-13.804 4.889a.822.822 0 0 1-.274.047h-1.327l-4.108-.625a.798.798 0 0 1-.416-.199l-1.995-1.852-3.196-4.729h-1.852l-1.69 2.093-.625 1.743a.657.657 0 0 1-.083.168l-2.655 3.703a.82.82 0 0 1-.215.196l-3.988 2.469-7.373 4.436h82.722l4.209-1.955 4.607-2.45a.797.797 0 0 1 .274-.086l9.292-1.233 12.721-.008 29.275 2.469 6.721 1.247 9.607 2.016h56.874l-5.002-.62Z" fill="#000"/><path d="m184.089 14.747-5.964 6.77-16.06 11.226-10.596 8.006-7.989 5.57-7.399 3.757-13.923 7.397a.824.824 0 0 1-.197.072l-7.964 1.85-7.114 2.414-5.012 3.487-.548 2.058 1.947 7.859 5.911 10.95 7.959 14.18 7.328 15.469 4.006 11.169 5.274 9.781 4.018 11.199.678 3.706 2.608 4.842 9.208 10.986 6.013 8.691 5.899 6.081 10.012 13.019 5.352 8.7 13.179 13.45 5.316 5.561 4.637 7.359 2.97 1.659h3.107a.79.79 0 0 1 .375.094l4.65 2.466 3.226 1.192c.131.05.244.136.333.241l5.31 6.785 4.655 6.184c.036.05.066.105.09.163l4.643 11.725 5.25 12.809 7.857 7.297c.06.058.113.124.149.199l5.31 10.489 2.042 8.166 3.28 7.292 1.172 1.609 1.554.965 1.637-.509 3.06-1.725 3.911-4.234 4.678-4.358 6.703-4.989 4.47-4.158 1.929-4.795 1.929-10.799-2.518-7.024-7.108-4.803a.77.77 0 0 1-.172-.16l-3.316-4.32a.68.68 0 0 1-.107-.636l.661-1.852a.703.703 0 0 1 .119-.202l5.899-7.309.583-1.634v-6.056l-.655-6.103-1.261-3.457-2.602-3.625a.633.633 0 0 1-.083-.169l-1.327-3.7a.57.57 0 0 1-.042-.223v-7.406l.672-3.224a.707.707 0 0 1 .274-.415l3.322-2.469a.845.845 0 0 1 .19-.105l3.316-1.234 3.816-1.772 3.232-3.006 2.738-1.917 3.387-1.891 4.137-1.3 3.126-1.166 3.214-2.982 1.762-2.203v-10.133l-3.941-10.378-1.154-1.573-1.864-1.159a.686.686 0 0 1-.309-.782l1.327-4.319 1.381-2.589 4.721-5.674 9.226-8.587 1.887-5.251-.643-6.02-1.327-7.358-.012-1.352 1.352-6.308 1.97-6.133v-6.559l-1.941-4.815-.708-5.096-.006-4.41 1.327-16.711.685-3.172 2.625-8.561-.649-5.417.661-7.539-1.315-7.231a.526.526 0 0 1-.007-.194l.661-5.552 1.983-9.222-.661-7.303v-4.997l.666-12.991-.661-4.187a.628.628 0 0 1 .01-.188h-12.724l.875 1.626a.656.656 0 0 1 .083.315v3.703c0 .11-.03.218-.083.315l-1.262 2.356-.655 5.425a.655.655 0 0 1-.048.186l-1.327 3.086a.716.716 0 0 1-.25.304l-5.31 3.703-2.571 2.403-3.275 3.655-3.851 5.99-.643 2.367.024 6.614.661 4.22 1.304 4.226a.746.746 0 0 1 .029.193v2.96l3.935 9.75 1.363 7.538.012 6.288c0 .091-.018.18-.053.263l-1.328 3.083-1.286 6.047-1.321 9.212.006 8.45 1.964 6.698c.03.105.03.215.012.323l-.661 3.086a.68.68 0 0 1-.143.288l-1.994 2.467-2.554 3.567-.577 2.129 1.167 2.696 3.161 2.353a.7.7 0 0 1 .285.553v6.789a.642.642 0 0 1-.083.315l-1.327 2.467-3.381 4.416a.747.747 0 0 1-.25.208l-5.971 3.086-3.804 2.358-2.565 3.584-2.507 4.671.608 4.538 3.857 4.783 3.256 3.012c.077.072.137.16.173.26l2.655 6.786 5.303 12.319.679 1.892a.664.664 0 0 1-.125.666l-2.661 3.083-4 4.339a.675.675 0 0 1-.155.127l-3.982 2.47-10.018 4.972-3.727 2.909-2.53 4.692-.648 5.426-2.007 8.105a.673.673 0 0 1-.077.182l-3.316 5.556-4.595 6.711-.607 2.837.643 4.201.631 2.934 2.595 4.22 3.238 3.6 4.726 7.502 6.626 9.853a.659.659 0 0 1 .089.547l-.661 2.47a.65.65 0 0 1-.202.329l-1.994 1.85-3.268 3.655-5.399 4.4a.788.788 0 0 1-.5.174h-.661a.772.772 0 0 1-.339-.075l-3.982-1.852-4.805-3.797a.747.747 0 0 1-.19-.221l-1.988-3.703-2.631-4.283a.459.459 0 0 1-.072-.166l-1.994-6.789-1.345-7.475-.012-1.855-3.28-9.775-4.584-7.256-3.28-4.264-7.196-8.52-7.197-4.253a.733.733 0 0 1-.173-.144l-3.315-3.703-9.947-10.477-9.31-10.506-7.34-9.924-9.917-11.053-15.263-16.661-12.018-17.977-5.298-7.383-2.066-5.083-2-5.577-3.333-11.769-3.334-16.091-1.298-3.612-2.649-6.77-3.952-7.33a.71.71 0 0 1-.066-.454l.661-3.086a.688.688 0 0 1 .143-.287l3.982-4.936 14.025-12.427 15.322-11.152 23.198-19.103 14.584-12.939 8.613-8.01c.06-.053.125-.1.203-.134l2.655-1.233L220.59 0h-23.147l-4.704 5.467-8.65 9.28ZM422.328 498.136l-29.126-2.455-12.543.002-9.042 1.206-4.518 2.403-1.524.708h66.382l-3.004-.63-6.625-1.234Z" fill="#000"/><path d="m194.453 46.42-6.482 4.82-11.239 9.837-5.988 4.95-15.697 18.861-.643 8.426.589 3.766 2.685.998 2.184-.508 4.494-4.773 4.566-4.25 2.596-6.034 4.678-8.691a.757.757 0 0 1 .137-.186l17.924-16.66 3.786-5.904.583-4.909-.631-.293-3.542.55ZM499.666 484.553a.744.744 0 0 1-.292.014l-18.584-2.469-13.251-1.228-3.387-.628-7.882-.605-11.31-1.237-6.696-1.244-7.292-1.23-7.953-1.231-5.935-.617-13.34-2.475-12.662-3.094-11.833-1.217-8.602-.613-6.381.002-4.465 2.373-4.119 1.294-14.59 4.93-9.257 3.687-9.964 3.711a.873.873 0 0 1-.286.049h-5.977a.83.83 0 0 1-.244-.036l-7.965-2.469-8.684-4.947-10.388-2.417-8.506.609-2.929.55-3.149 4.095-1.268 2.37-1.964 4.283a.741.741 0 0 1-.119.175l-3.322 3.702a.69.69 0 0 1-.179.147l-5.309 3.086a.747.747 0 0 1-.185.077l-6.637 1.85a.834.834 0 0 1-.22.031h-11.286l-6.787-1.247a.8.8 0 0 1-.327-.142l-9.869-7.339-3.215-1.194a.81.81 0 0 1-.256-.158l-1.994-1.852-7.911-6.126-3.834-1.764-2.173-.489-5.696 3.531-.905.86 1.22 4.552a.657.657 0 0 1-.053.486l-.661 1.234a.773.773 0 0 1-.375.331l-5.977 2.47a.806.806 0 0 1-.553.025l-1.988-.62a.773.773 0 0 1-.441-.356l-2.655-4.936-6.566-10.367-3.607-3.355-1.953.451-1.16 1.623-1.971 3.056a.772.772 0 0 1-.654.346h-1.995a.794.794 0 0 1-.238-.036l-5.97-1.85a.85.85 0 0 1-.304-.172l-4.649-4.319-7.244-5.509-7.179-3.625-6.12-5.033-4.762-6.291a.757.757 0 0 1-.125-.268l-1.994-9.255-4.613-11.62-6.644-18.533-5.238-7.875-6.572-7.32-19.126-13.467-13.679-5.425-11.173-1.223-13.013.614-7.851 3.039-8.019 2.486-8.69 1.869-18.067.637a.778.778 0 0 1-.238-.028l-4.649-1.233a.708.708 0 0 1-.196-.08L0 375.692v9.315l6.2-.576 10.649-.62 17.888-1.844 8.601-1.233 7.286-.009 7.858-2.43 6.125-.647 7.387-.006c.15 0 .298.042.423.119l9.96 6.169 13.375 11.8 3.268 2.43 3.381 3.136a.759.759 0 0 1 .167.221l3.982 8.639 2.637 4.903a.714.714 0 0 1 .077.315v17.895a.599.599 0 0 1-.041.223l-1.328 3.703a.551.551 0 0 1-.113.199l-1.988 2.467a.55.55 0 0 1-.137.135l-5.976 4.32-7.28 3.7-3.227 3.6-5.917 8.567-4.566 12.192-1.303 7.289.012 8.523L79.96 500h196.626l.098-.061 13.155-7.944 2.512-3.504.631-1.761a.588.588 0 0 1 .113-.202l1.994-2.47a.784.784 0 0 1 .608-.282h2.654c.262 0 .507.127.649.332l3.316 4.936 1.709 1.568 3.744.578 1.059-.009 13.816-4.891a.87.87 0 0 1 .268-.044h8.489l5.179-1.809 6.006-1.858 11.983-3.097 11.203-4.295a.866.866 0 0 1 .392-.041l9.293 1.233c.268.036.5.202.601.437l1.327 3.086 2.59 6.598 1.542.954 5.696-.586 11.37-.006 13.286 1.845 5.203-.606a.948.948 0 0 1 .22.003l7.971 1.233 15.268 2.472 14.644 3.092 6.619 1.23 15.186 1.223 13.905.616 9.115 1.127v-14.621l-.334.077ZM0 20.348l4.58-2.366L21.117 7.524 30.344.169l.18-.169H1.033L0 .863v19.485Z" fill="#000"/><path d="m66.59 488.264-.006-22.907 1.35-5.111 2.662-8.66 4.035-7.525 3.977-8.002 2.62-7.934 1.368-2.577 1.25-2.907v-7.267l-1.267-5.84-6.507-6.645-15.715-11.553-7.048-1.789h-2.363l-5.798 2.997-2.685 1.247-3.375 1.261-4.822.659-6.595 1.227-4.012.623-13.322 1.238-10.084-.616c-.102-.007-.167-.077-.253-.117v9.942l3.729.495 5.953.614 7.143-.62 17.995-.619c.09 0 .185.016.268.044l5.31 1.85c.136.047.255.13.339.238l1.994 2.469 1.405 2.58 1.16 1.615 2.388 1.109L54.22 419a.74.74 0 0 1 .19.061l2.655 1.233c.078.033.143.08.203.132l3.321 3.086a.756.756 0 0 1 .137.186l2.661 4.936c.036.072.06.149.071.227l.661 4.936a.65.65 0 0 1-.053.367l-1.989 4.32-1.976 5.497-1.31 4.886-1.333 4.342-2 5.583-.631 6.017-.655 11.689-.666 9.883.654 7.206L56.667 500h11.327l-1.405-11.736Z" fill="#000"/><path d="M52.696 493.98a.633.633 0 0 1-.048-.183l-.666-7.402.666-9.977.661-11.717.672-6.205 2.024-5.705 1.316-4.289 1.322-4.916 2.012-5.606 1.928-4.197-.619-4.627-2.541-4.723-3.15-2.925-2.452-1.14-6.536-1.216a.747.747 0 0 1-.19-.061l-2.656-1.234a.728.728 0 0 1-.291-.24l-1.334-1.85-1.374-2.547-1.786-2.193-4.97-1.733h-1.192l-16.566.616-7.256.614-6.131-.619-3.539-.47v20.763c.193.102.35.261.39.477l1.994 10.491 1.268 4.106 3.208 3.587 4.709 6.861 1.071.976 2.453.57 3.798-.023 5.214-.611a.72.72 0 0 1 .304.022l4.649 1.234 5.286 1.228c.137.03.256.093.357.185l1.327 1.236a.68.68 0 0 1 .22.5v9.872a.662.662 0 0 1-.03.186l-1.963 6.697v7.309L36.185 500h18.877l-2.366-6.02ZM448.443 1.493l-3.352 8.105-6.697 9.997-2.012 1.891-1.94 3.603-.578 1.648v5.44l.608 2.173 6.566 9.159a.62.62 0 0 1 .101.221l1.327 4.936 1.31 3.65a.61.61 0 0 1 .035.323l-.66 4.32-1.34 5.608-.654 4.87.005 5.466 1.31 5.398.673 3.742.666 4.963a.654.654 0 0 1-.023.282l-3.316 10.5a.798.798 0 0 1-.125.224l-5.976 7.403a.764.764 0 0 1-.268.207l-.971.451-.559 3.683 1.036 1.447 3.095 1.15a.759.759 0 0 1 .399.343l1.327 2.469a.705.705 0 0 1 .066.454l-.661 3.086.012 12.2 1.298 6.562 1.279 2.381 2.632 4.283a.64.64 0 0 1 .077.166l1.988 6.786 1.334 5.589.017 5.088a.652.652 0 0 1-.107.362l-1.905 2.959-.649 4.79-.648 3.622.648 4.212.006 5.035a.936.936 0 0 1-.023.185l-1.989 6.789c-.023.067-.053.13-.089.191l-3.322 4.936-1.297 2.406-3.411 3.841-6.018 5.602-7.334 6.192a.748.748 0 0 1-.22.13l-7.965 3.086-15.364 3.735-3.94 1.22-4.489 1.792-3.238 2.409-5.328 3.716-5.268 4.286-13.233 12.308-3.28 3.656a.783.783 0 0 1-.583.254h-1.328a.837.837 0 0 1-.285-.049l-3.316-1.236-3.934-1.22a.781.781 0 0 1-.298-.171l-.667-.617a.685.685 0 0 1-.226-.501v-2.469c0-.141.041-.277.125-.392l1.274-1.773.583-1.62-.101.046-1.131 1.054-1.268 2.948-3.351 6.225-4.626 10.441-3.285 10.422-3.334 9.281-1.298 6.086-1.327 6.775-.655 6.725-.667 4.961.006 9.167.626 2.826 1.922 2.984 4.566 4.831a.633.633 0 0 1 .149.243l1.327 3.703 3.929 6.67 1.369 3.163 2.625 4.884 5.923 7.933 7.274 8.606 6.62 7.388 3.357 4.361 5.899 5.464 6.054 8.119 8.613 10.467 1.923 1.778 2.107 3.222a.705.705 0 0 1 .096.237l1.327 6.789.673 7.472a.692.692 0 0 1-.22.558l-3.316 3.086a.753.753 0 0 1-.202.133l-2.655 1.234a.845.845 0 0 1-.245.069l-5.309.619-3.417.006a.806.806 0 0 1-.393-.103l-3.316-1.852-9.137-4.24-4.518-.602-9.239-.612-1.94.003-7.459 1.164-1.149 2.146a.717.717 0 0 1-.262.274l-1.994 1.233a.762.762 0 0 1-.345.116l-6.637.617a.837.837 0 0 1-.375-.055l-4.643-1.85-3.417-1.897-4.131-3.808-6.715-8.727-3.381-6.263-3.257-4.226a.689.689 0 0 1-.13-.273l-1.328-6.173-1.137-2.621-2.006-.47-2.405 1.12a.871.871 0 0 1-.434.069l-5.31-.617a.846.846 0 0 1-.363-.135l-2.655-1.853-5.989-4.328-5.244-3.044-5.994-3.711-11.239-8.6-3.845-1.192-4.513-.589-6.53.008-4.756-.625-15.262-1.85-5.477-1.888-4.756-2.519a.882.882 0 0 1-.155-.114l-3.322-3.083-7.917-6.128-11.221-9.817-4.524-1.803-2.809-1.933-13.941-9.872-2.738-2.536-3.364-3.749a.7.7 0 0 1-.113-.161l-3.316-6.788-4.613-7.34-4.631-6.766-4.03-8.105-.708-2.591-1.298-5.426-3.75-4.642-6.965-2.356h-.524a.875.875 0 0 1-.286-.05l-6.637-2.467a.942.942 0 0 1-.196-.108l-13.84-10.419-5.197-1.809a.76.76 0 0 1-.351-.251l-5.298-6.778a.546.546 0 0 1-.107-.174l-1.994-4.936a.71.71 0 0 1-.048-.249v-3.703c0-.11.03-.218.083-.318l4.578-8.514.637-7.718-1.262-2.934-4.643-10.483-1.988-6.761-2.59-3.606-6.566-6.703-2.63-2.445-14.418-9.736-3.87-1.198a.833.833 0 0 1-.303-.171l-3.875-3.606-4.417-1.761-4.548-.606a.799.799 0 0 1-.351-.133l-7.965-5.552-6.72-6.239-2.06-2.541-2.709-4.394-1.398-4.477a.632.632 0 0 1 0-.379l1.994-6.789 2.006-4.999a.845.845 0 0 1 .173-.252l3.791-3.526 1.286-11.351-1.928-7.19-2.536-4.126-13.174-10.408-7.935-5.528-7.97-7.4-5.875-3.036L0 80.85v22.959c.092.05.2.071.264.157l4.65 6.172a.67.67 0 0 1 .125.29l.63 3.531 1.816 2.249L10.057 118l9.131 3.617a.702.702 0 0 1 .286.193l7.304 8.022c.09.097.143.213.167.34l1.327 7.406 1.994 12.352 1.328 9.267 1.964 9.106 3.256 5.456 3.357 7.477 1.316 4.253 6.53 7.286 3.994 6.17 5.888 4.864 5.887 3.642 8.429 3.606 4.53.602 7.4 1.867a.77.77 0 0 1 .22.094l3.982 2.469a.71.71 0 0 1 .297.365l1.328 3.703a.608.608 0 0 1 .035.324l-.66 4.319-3.358 8.777-1.964 4.264-.625 5.21 1.863 2.881 5.197 4.801 5.303 6.769 3.87 2.4a.69.69 0 0 1 .184.163l3.983 4.936 4.03 6.231c.071.11.107.237.107.365v3.086l1.315 6.661.655 4.856.607 1.126 3.286 4.875 4.596 5.497a.798.798 0 0 1 .113.185l1.917 4.743 2.476 1.725 5.191 2.404c.077.032.143.08.202.132l2.655 2.467 2.75 3.81 1.97 4.239 3.792 2.354 3.072 1.128 6.536.605 12.12 3.736 19.37 9.928 4.042 2.497a.672.672 0 0 1 .184.163l3.983 4.936 6.702 11.822 2.685 8.666 2.494 3.481 17.025 9.742 4.399 1.167 10.465-1.216 4.434-1.187 3.233-1.8a.789.789 0 0 1 .47-.099l12.62 1.236a.679.679 0 0 1 .214.052l6.012 2.486c.077.034.143.08.196.133l1.882 1.742 8.494 3.036 3.423 1.903 3.47 3.191c.054.055.101.116.143.185l.554 1.043 12.417 6.681 3.226 1.189c.078.03.155.075.221.13l5.97 4.936a.65.65 0 0 1 .214.304l.614 1.695 2.529 2.348a.805.805 0 0 1 .161.221l1.989 4.319 1.262 1.74 4.553 4.211 7.346 8.066 1.286 1.189 2.922 1.613 3.709-.576 5.863-1.825 12.019-2.488 9.405-.631 9.399.617 6.007.619 21.34 4.956 5.959 1.227 6.119 2.514 5.828 1.189 4.976.575 2.637-1.468-.541-2.503-1.286-2.386-3.352-9.347-3.297-10.408-5.251-7.317-2.065-5.08-2.673-8.697-2.607-4.811-3.286-4.878a.818.818 0 0 1-.101-.26l-.667-3.703a.666.666 0 0 1 .143-.542l1.994-2.467 3.119-5.826-.559-2.077-1.899-2.353-4.03-6.23-2.685-4.988a.713.713 0 0 1-.071-.416l.643-4.153-.608-1.692-1.339-4.35-.685-6.919-1.958-5.392-1.316-3.047a.675.675 0 0 1-.053-.263v-2.367l-1.298-4.226a.7.7 0 0 1-.03-.193v-1.75l-3.857-11.99-1.774-1.098-2.69-1.875a.84.84 0 0 1-.197-.202l-1.994-3.083a.724.724 0 0 1-.083-.194l-1.328-4.939-.024-4.385-1.964-6.07a.794.794 0 0 1-.03-.205v-2.469c0-.141.042-.277.131-.393l1.322-1.85 1.934-1.814 1.28-5.354 1.393-2.626a.488.488 0 0 1 .107-.153l4.524-4.808.619-2.301 1.334-4.342a.638.638 0 0 1 .077-.171l5.905-9.139 1.304-7.273a.705.705 0 0 1 .208-.384l3.316-3.086 9.417-5.641a.837.837 0 0 1 .178-.083l7.965-2.47 7.227-3.058a.867.867 0 0 1 .19-.056l3.983-.616 4.339-1.745 7.197-6.695 1.923-2.389a.676.676 0 0 1 .226-.191l4.649-2.469 11.173-8.57 5.995-4.333 3.125-3.504 6.589-16.547.637-2.395-.024-4.764-.66-9.828.66-7.508v-6.111l-1.982-13.478-.637-5.329-1.804-1.673a.69.69 0 0 1-.202-.348l-1.268-5.298-2.428-1.693a.695.695 0 0 1-.304-.566v-5.556c0-.188.077-.368.22-.5l1.328-1.234 1.922-2.389a.655.655 0 0 1 .185-.166l1.869-1.159 1.173-1.64 1.268-4.117v-6.072l-1.322-8.54-.006-2.566-.66-4.847-.007-21.069.667-7.463-.667-11.628-.642-6.601-1.905-2.945-3.203-2.95-2.059-2.545a.67.67 0 0 1-.155-.426V12.43l.684-3.225.649-4.886-.006-2.378c0-.268.161-.511.423-.633l1.327-.62a.822.822 0 0 1 .882.133l3.321 3.086 4.453 2.948 1.767.548h3.858l2.47-.595 6.483-3.034 7.381-2.5a.83.83 0 0 1 .262-.04h5.97l6.496.462V0h-51.157l-.4 1.493ZM2.306 203.181l-.72-1.667L0 198.196v3.001l2.044 1.904.262.08ZM475.325 400.572l4.542 1.811 6.488 1.189 6.709 1.867 6.936 3.852v-7.139l-16.068-5.866a.833.833 0 0 1-.261-.158l-1.328-1.233a.807.807 0 0 1-.167-.238l-2.654-6.172a.643.643 0 0 1-.048-.351l.667-4.936a.704.704 0 0 1 .214-.412l1.851-1.723 1.274-4.142.637-7.881-.661-4.795-1.327-11.736-2.643-11.028-1.334-6.189-1.339-25.405a.637.637 0 0 1 .042-.257l1.994-5.552 1.292-11.576 2-8.713 2.661-5.6 3.964-25.205-.006-2.984a.68.68 0 0 1 .22-.5l1.328-1.234a.808.808 0 0 1 .494-.205l9.198-.534v-88.653l-1.096 5.482-.661 4.898.006 3.614-5.989 24.835-2.643 15.997-2.654 7.433-.661 10.398-1.334 10.53-.654 19.069a.703.703 0 0 1-.108.343l-1.994 3.083a.751.751 0 0 1-.155.169l-5.309 4.319-3.429 1.925-1.619 1.535v5.265l.654 6.722 1.971 6.667a.642.642 0 0 1 .03.235l-.667 8.639-.667 4.369a.566.566 0 0 1-.077.216l-4.649 8.638-1.209 2.821 1.268 4.715 3.953 9.164 1.363 5.666 1.292 2.973 1.369 6.296.673 6.861.006 10.555-1.334 8.13-4.697 11.254a.61.61 0 0 1-.101.167l-1.869 2.325-.613 3.974.607 1.695 1.983 4.911c.029.08.047.163.047.249v2.14l4.292 3.421Z" fill="#000"/><path d="M483.617 381.627a.725.725 0 0 1-.19.307l-1.804 1.681-.613 4.513 2.524 5.868 1.107 1.026L500 400.63V248.943l-8.817.512-.899.838v2.793l-3.988 25.402a.679.679 0 0 1-.06.185l-2.655 5.553-1.94 8.5-1.316 11.65-1.982 5.575 1.321 25.17 1.316 6.067 2.649 11.094 1.339 11.799.667 4.925-.661 8.163-1.357 4.458ZM13.39 256.714l2.93-1.092 1.809-3.919v-8.912l-1.887-2.917-4.661-8.05-5.274-7.348L0 214.214v43.247l2.98.461 10.41-1.208ZM32.736 485.186l-.006-7.488c0-.064.013-.124.03-.185l1.965-6.698v-9.485l-.959-.89-5.101-1.186-4.524-1.2-5.155.6-4.078.005-2.84-.639a.778.778 0 0 1-.356-.185l-1.328-1.236-4.75-6.908-3.256-3.628a.656.656 0 0 1-.149-.26l-1.327-4.319L0 436.752V500h34.65l-1.913-14.814Z" fill="#000"/><path d="m5.396 272.741 5.125-2.978a.853.853 0 0 1 .274-.096l18.578-3.086 5.173-.603 1.846-1.14 1.41-.661a.813.813 0 0 1 .679 0l1.328.617a.699.699 0 0 1 .422.633v1.85c0 .111-.03.219-.083.318l-.584 1.084v2.166l1.274 2.958 1.988 4.303a.75.75 0 0 1 .06.279v3.515l7.197 11.556 7.31 12.356 1.369 3.163.708 3.849 1.244 4.615 1.554.965h3.435l.172-.16-.613-3.971-.667-11.785.673-3.855a.624.624 0 0 1 .072-.202l.666-1.236a.767.767 0 0 1 .679-.39h1.988c.203 0 .399.075.541.207l1.328 1.236a.68.68 0 0 1 .196.33l.667 2.466 1.995 8.036 1.32 4.922 3.293 7.939 4.518 7.173 4.506 2.998 4.506 1.775 22.543 8.011 8.113 5.008 6.757 6.261 4.024 4.358 4.042 5.622a.633.633 0 0 1 .101.221l1.958 7.297 3.262 4.84 2.548 2.345 15.906 13.555 4.071 5.03 8.674 13.011 7.029 7.115 13.013 1.814 4.352-.009 3.821-1.775 2.096-.655a.773.773 0 0 1 .422-.014l2.655.616 3.923.603c.196.031.369.13.482.274l1.994 2.47a.67.67 0 0 1 .149.489l-.667 6.786.006 1.62 1.244 2.32 2.483 2.86 3.208 1.789 3.828 1.167 4.185.545 3.065-2.279 1.923-1.797 2.738-1.917c.054-.036.113-.066.173-.091l3.321-1.236a.773.773 0 0 1 .232-.047l19.912-1.234a.69.69 0 0 1 .268.026l11.286 3.086 8.09 3.749 9.858 3.045c.095.03.184.077.262.138l9.959 8.022 4.714 5.005 2.625 2.434 7.322 7.427 3.697 2.857h5.036l12.292-1.209 5.131-4.173a.807.807 0 0 1 .161-.099l2.655-1.233 6.078-1.889a.754.754 0 0 1 .238-.036h6.637l7.292 1.22 3.178-.589 12.055-.631c.083.003.143.003.214.019l8.632 1.85 11.899 1.839 3.345.625 8.054 2.489 13.185 2.447 12.465-.013 7.435 1.244 16.579 2.466 15.935 2.467 8.619 1.233 7.787-.622 7.888-.977v-11.959l-2.835 1.317-5.946 3.072-9.453 2.53-14.775.644-11.369-.617-6.09-1.252-3.155.016-19.43-4.338a.781.781 0 0 1-.196-.075l-4.512-2.392-5.816-.603-5.411-1.252-29.853-6.164-2.488.016a.865.865 0 0 1-.268-.044l-5.178-1.808h-9.06l-7.198 1.828a.746.746 0 0 1-.231.024l-16.501-.613-9.197 1.83-4.685.017-3.869 1.197a.763.763 0 0 1-.238.036h-2.655a.837.837 0 0 1-.393-.1l-3.322-1.85-8.774-8.129-9.245-7.37-5.357-4.972-8.608-9.844-11.852-7.345-2.446-1.131-6.506-.605-9.876.002-6.559.617-6.715.003a.791.791 0 0 1-.339-.075l-13.162-6.117-5.637-.58-7.786 3.014-8.138 1.28a.765.765 0 0 1-.196.006l-7.298-.617-6.072-1.247-8.036-2.489-4.792-2.527a1.136 1.136 0 0 1-.161-.114l-3.982-3.702a.753.753 0 0 1-.137-.186l-1.327-2.466-1.982-4.909-1.858-2.297-6.536-4.254-9.375-8.083a.644.644 0 0 1-.161-.204l-1.328-2.467a.667.667 0 0 1-.071-.453l.661-3.086c.018-.061.036-.122.071-.18l1.994-3.703a.69.69 0 0 1 .221-.249l2.452-1.709 1.227-3.995v-2.014l-2.352-1.639-2.536-1.167-3.375-1.875-10.012-6.827-5.197-2.406-17.245-7.395-7.227-3.666-3.857-.595-5.286-.614-4.012-.625a.78.78 0 0 1-.357-.149l-7.298-5.553-2.048-1.897-4.75-6.91a.949.949 0 0 1-.09-.18l-3.321-10.491-.685-6.922-2.648-10.392-3.292-8.564-1.995-10.444-3.214-4.19a.73.73 0 0 1-.119-.24l-.643-2.381-7.25-12.258-1.97-6.07-4.441-2.954-6.745-6.246-8.69-10.561-13.305-18.547a.589.589 0 0 1-.083-.168l-1.923-5.357-2.94-2.181h-.959v1.758l1.304 4.765.678 4.391a.687.687 0 0 1-.178.564.799.799 0 0 1-.578.243h-.535l-3.864 1.201a.809.809 0 0 1-.482 0l-1.994-.617a.748.748 0 0 1-.488-.448l-.66-1.853-1.317-4.894-5.172-8.418L.4 192.515v3.034l2.59 5.414 1.34 3.111a.679.679 0 0 1-.156.749.832.832 0 0 1-.797.186l-1.988-.617a.834.834 0 0 1-.298-.171L0 203.205v8.156l7.604 12.371 5.286 7.364 4.679 8.078 1.977 3.056a.67.67 0 0 1 .107.364v9.256a.746.746 0 0 1-.06.279l-1.994 4.32a.77.77 0 0 1-.417.378l-3.315 1.236a1.01 1.01 0 0 1-.191.045l-10.62 1.233a.878.878 0 0 1-.22-.003L0 258.899v13.842h5.396ZM75.888 488.325l-.013-8.777 1.346-7.521 4.673-12.458 6.054-8.788 3.375-3.775a.754.754 0 0 1 .22-.168l7.304-3.703 5.792-4.198 1.851-2.298 1.25-3.487V415.54l-2.577-4.789-3.941-8.55-3.214-2.987-3.256-2.417-13.323-11.763-9.667-5.976H64.69l-5.887.611-7.816 2.437a.788.788 0 0 1-.238.035h-7.298l-8.512 1.228-17.96 1.853-10.654.619-6.325.591v10.445c.117-.053.23-.126.36-.105l9.953.617 13.143-1.233 3.941-.612 6.614-1.227 4.684-.622 3.143-1.195 2.601-1.208 5.941-3.072a.791.791 0 0 1 .37-.089h2.66c.066 0 .137.008.203.025l7.298 1.853c.095.024.19.069.268.127l15.929 11.722 6.738 6.869c.09.094.155.21.185.337l1.327 6.172.012 7.541c0 .091-.018.18-.053.263l-1.328 3.086-1.351 2.522-2.614 7.914-4.023 8.11-3.994 7.423-2.602 8.517-1.321 4.916.023 22.659L69.524 500h8.88l-2.516-11.675ZM496.921 41.493V43.9a.669.669 0 0 1-.107.365l-1.881 2.915v2.107l.512.951 3.858 2.99a.708.708 0 0 1 .142.152l.555.773V44.77l-1.727-1.605-1.352-1.673Z" fill="#000"/><path d="m82.579 237.379 1.988-4.319 3.303-8.597.602-4.016-1.191-3.315-3.66-2.27-7.186-1.82-4.547-.6a.775.775 0 0 1-.215-.058l-8.632-3.703-6.071-3.755-6.06-4.997a.719.719 0 0 1-.149-.163l-3.982-6.172-6.566-7.314a.668.668 0 0 1-.149-.26l-1.327-4.32-3.292-7.328-3.28-5.48a.83.83 0 0 1-.083-.205l-1.994-9.258-1.334-9.3-1.988-12.33-1.286-7.201-7.054-7.748-9.125-3.634-2.816-1.935a.718.718 0 0 1-.149-.141l-1.994-2.467a.633.633 0 0 1-.143-.31l-.637-3.545L0 106.087v22.405c.076.041.17.045.229.112l9.292 10.492 6.066 11.241 11.268 18.477a.87.87 0 0 1 .078.166l1.988 6.786 3.91 6.634 3.971 6.144 2.685 4.989 2.042 6.916 3.952 8.545 5.256 7.93 2.602 3.015 1.357 2.491 2.572 2.387a.774.774 0 0 1 .137.182l1.952 3.622 9.887 10.417a1.1 1.1 0 0 1 .114.155l1.327 2.47c.036.066.06.141.071.215l1.31 8.517 5.91 10.381 2.668 4.953 1.321 4.261.524.49a.646.646 0 0 1 .202.329l.661 2.469.024 2.021.66 6.101.007 3.155 1.315 6.034.655 5.508 1.953 4.223 1.339 5.566 1.929 2.99 2.017 3.746 1.864 2.882 4.47 2.375 5.256 3.653 6.465 1.206 6.066 1.872 8.613 2.464a.89.89 0 0 1 .233.11l2.654 1.85 4.489 1.77 3.857 2.373 3.685-.573a.835.835 0 0 1 .518.092l3.321 1.85c.108.06.197.143.262.245l1.988 3.086 3.81 4.715 6.441 2.395 5.929 1.836 3.369 1.25a.796.796 0 0 1 .351.266l2.655 3.702 1.316 2.439 4.559 4.24a.776.776 0 0 1 .179.265l3.982 10.491.685 4.961 4.524 8.401 3.857 2.989 2.382 1.087 6.5.603 1.911-.003c.077 0 .148.011.226.031l8.631 2.469 7.804.589 5.994 1.833 5.805-.597 8.488-2.441c.107-.026.214-.028.321-.026l5.31.617 6.691 1.242 3.959.611 5.184-.008 4.757.624a.828.828 0 0 1 .256.078l7.303 3.703 7.251 3.064 10.739 6.849a.79.79 0 0 1 .196.191l3.988 5.553 3.929 4.25 1.429 2.613 4.53 6.006 8.56 6.731 6.684 6.208 2.429 1.689 3.155.587 2.97-.014 7.138-3.617 1.929-1.203a.668.668 0 0 1 .184-.083l1.994-.616 6.798-.65a.68.68 0 0 1 .214.008l7.179 1.214 4.524-.6 8.739-.008 15.995 1.238 11.435 3.109 8.643 2.472 13.233 3.077 5.221.601 4.762 1.255 6.714 2.492 11.126 1.811 4.726 1.249 3.9.603 5.648-.011 4.465-2.375 2.363-1.098.596-2.746 1.97-24.597-.631-4.629-3.887-5.414-10.019-20.463a.663.663 0 0 1-.041-.465l1.327-4.939a.65.65 0 0 1 .101-.221l2.655-3.7 6.655-8.658 3.852-7.79.655-7.897v-13.523l-.643-4.736-4.596-9.156-6.679-20.461a.781.781 0 0 1-.03-.201v-2.32l-1.934-4.187a.674.674 0 0 1-.042-.431l1.328-5.556.654-4.267.649-7.236-3.286-10.99-4.631-12.291-.696-3.183-1.179-2.71-3.631-1.69-2.881-.536-2.298 1.601-3.917 4.856a.726.726 0 0 1-.268.207l-1.327.62a.75.75 0 0 1-.19.06l-6.638 1.234a.792.792 0 0 1-.542-.089l-3.321-1.852-2.804-2.572a.686.686 0 0 1-.202-.348l-1.328-5.556a.67.67 0 0 1 .06-.467l.661-1.234a.723.723 0 0 1 .262-.274l1.887-1.166 3.905-4.84 3.988-3.116 3.917-6.673a.636.636 0 0 1 .125-.16l2.655-2.467 5.929-6.736 1.297-1.214 3.935-6.7 2.661-4.331 7.381-8.127 5.244-7.936 5.417-5.066 3.887-5.445 11.965-15.449 3.858-5.376.648-8.451v-3.506l-1.887-4.093-3.244-3.622a.658.658 0 0 1-.16-.315l-.619-2.854-5.787-4.779a.71.71 0 0 1-.243-.389l-.661-3.086-.012-7.544c0-.067.012-.13.03-.194l1.327-4.319 2.673-6.833 1.405-2.005 9.244-15.964.613-2.325-.024-4.148-.642-2.298-1.346-11.82-1.309-4.841-1.983-6.14-.696-7.548V42.048l-1.298-7.803-1.881-3.5-2.571-2.387-2.06-2.544a.57.57 0 0 1-.113-.202l-1.334-3.703-.648-3.587-.494-.456a.681.681 0 0 1 0-1l.66-.617a.817.817 0 0 1 .304-.172l1.893-.586 1.911-1.181a.791.791 0 0 1 .315-.11l4.643-.617 6.822.611 4.464-.611 3.138-1.195 1.274-.592a.794.794 0 0 1 .339-.074H500V3.115l-6.555-.469-5.774.003-7.179 2.425-6.56 3.053-2.81.67-4.166.021a.762.762 0 0 1-.238-.036l-1.995-.617a.667.667 0 0 1-.202-.096l-4.643-3.086-3.03-2.799-.417.194v2.03l-.667 5.024-.678 3.136.018 8.263 1.839 2.281 3.25 3.011 2.108 3.219a.618.618 0 0 1 .101.301l.661 6.79.672 11.749-.667 7.502v20.922l.661 4.848.006 2.555 1.322 8.539.005 6.272c0 .066-.011.13-.029.193l-1.328 4.32a.793.793 0 0 1-.095.199l-1.327 1.85a.838.838 0 0 1-.215.196l-1.887 1.17-1.91 2.367-1.173 1.1v4.912l2.351 1.637a.729.729 0 0 1 .286.414l1.28 5.354 1.833 1.703a.698.698 0 0 1 .215.423l.666 5.553.661 4.297 1.327 9.264.006 6.263-.661 7.464.661 9.77v4.98l-.684 2.64-6.661 16.736a.631.631 0 0 1-.131.207l-3.322 3.703-6.089 4.425-11.269 8.627-4.613 2.464-1.899 2.348-7.37 6.866a.833.833 0 0 1-.244.149l-4.649 1.85-4.053.65-7.209 3.047-7.941 2.467-1.911 1.181-7.316 4.328-3.012 2.826-1.291 7.184a.645.645 0 0 1-.096.249l-5.929 9.175-1.952 6.672a.67.67 0 0 1-.167.296l-4.583 4.87-1.286 2.384-1.262 5.392a.687.687 0 0 1-.203.346l-1.994 1.852-1.107 1.563v2.151l1.964 6.07c.018.066.03.135.03.205v4.319l1.274 4.662 1.863 2.876 2.536 1.77 1.953 1.211a.706.706 0 0 1 .297.365l.667 1.853 3.327 10.513a.75.75 0 0 1 .03.199v1.754l1.298 4.225c.018.063.03.127.03.194v2.331l1.274 2.959 2.006 5.591.696 6.949 1.959 6.009a.608.608 0 0 1 .035.323l-.637 4.101 2.554 4.743 3.953 6.119 1.946 2.409a.63.63 0 0 1 .131.254l.667 2.467a.634.634 0 0 1-.06.487l-3.321 6.172-1.869 2.331.589 3.268 3.238 4.815 2.691 4.994 2.708 8.766 1.971 4.88 5.232 7.262a.744.744 0 0 1 .095.194l3.322 10.488 3.304 9.231 1.291 2.378a.83.83 0 0 1 .066.177l.661 3.086a.69.69 0 0 1-.352.747l-3.321 1.849a.803.803 0 0 1-.393.1c-.03 0-.066-.003-.095-.005l-5.31-.617-6.042-1.245-6.12-2.513-5.833-1.189-21.257-4.945-5.875-.6-9.263-.614-9.185.617-11.834 2.456-5.905 1.83-4.095.645c-.167.044-.363-.003-.518-.092l-3.316-1.852-1.476-1.339-7.346-8.066-4.607-4.275-1.423-1.961-1.994-4.308-2.554-2.37a.658.658 0 0 1-.178-.276l-.608-1.673-5.714-4.729-3.203-1.186-12.709-6.833a.771.771 0 0 1-.303-.299l-.601-1.131-3.239-3.003-3.166-1.745-3.215-1.183-5.292-1.845a.724.724 0 0 1-.268-.163l-1.911-1.77-1.214-.567-4.5-1.791-12.245-1.198-3.095 1.728a.741.741 0 0 1-.185.075l-4.649 1.233-10.733 1.258c-.101 0-.214.006-.303-.022l-4.649-1.236a.788.788 0 0 1-.191-.077l-17.257-9.872a.773.773 0 0 1-.238-.21l-2.655-3.703a.81.81 0 0 1-.095-.199l-2.655-8.639-6.578-11.589-3.839-4.743-3.881-2.4-19.192-9.844-11.821-3.65-6.477-.584a.925.925 0 0 1-.209-.047l-3.315-1.233-4.119-2.539a.735.735 0 0 1-.28-.309l-1.994-4.32-2.59-3.589-2.47-2.276-5.197-2.419-2.774-1.917a.75.75 0 0 1-.256-.318l-1.952-4.836-4.572-5.47-3.369-4.994-.696-1.294a.78.78 0 0 1-.072-.227l-.667-4.936-1.321-6.75-.012-3.017-3.875-6-3.858-4.779-3.875-2.403a.719.719 0 0 1-.196-.174l-5.31-6.789-5.233-4.85-2.107-3.222a.686.686 0 0 1-.101-.442l.667-5.553a.597.597 0 0 1 .053-.202Z" fill="#000"/><path d="m416.381 13.547-5.22 4.247-2.506 5.235.625 4.62 2.601 4.829a.714.714 0 0 1 .077.315v4.936l.661 9.208 2.637 11.004 2.006 18.593 2.631 8.517.691 18.683v17.299c0 .351-.28.65-.655.7l-8.786 1.167-.536 2.007.024 2.298.649 2.945.012 10.63 2.649 15.936 1.976 7.339 1.339 7.461a.593.593 0 0 1 .006.21l-1.327 9.255-.661 7.37a.708.708 0 0 1-.22.442l-4.643 4.32-4.102 2.558a.792.792 0 0 1-.273.105l-6.638 1.233-6.125.014-9.143.608-5.786 1.795-1.822 1.128-8.56 9.183-12.018 9.939-7.876 9.17-6.006 6.199-1.905 2.979-1.911 6.008-2.006 5.575a.587.587 0 0 1-.149.241l-4.643 4.936a.675.675 0 0 1-.178.144l-9.959 5.55-4.548 3.633-1.78 1.665-.625 2.873.018 8.503 1.316 6.031.678 11.827a.967.967 0 0 1-.018.188l-1.327 5.556-1.315 12.869.648 9.552 3.798 4.695 3.239 2.411 12.625 9.886c.06.044.107.094.149.149l3.982 5.553 10.59 12.922 7.31 9.267 4.69 7.466 4.614 6.122 3.964 4.917c.06.069.102.149.125.232l2.655 8.639c.018.064.03.127.03.193v4.32l-.667 4.419a.723.723 0 0 1-.363.509l-3.321 1.85a.907.907 0 0 1-.31.094l-5.976.619-11.412-.614h-9.911l-11.905.62h-.042a.828.828 0 0 1-.411-.111l-7.304-4.322a.715.715 0 0 1-.196-.175l-1.988-2.466a.604.604 0 0 1-.131-.252l-1.328-4.936-1.351-8.71-2.53-6.427-13.727-8.511-10.506-4.259-4.78-3.161-6.006-4.336-11.251-7.385-2.554-1.178-8.566-3.059-4.351-.558-3.191.591-3.47.014-4.75-.625a.783.783 0 0 1-.351-.133l-5.316-3.702-6.655-4.95-5.977-6.161-11.84-6.114-5.399-3.755-7.238-5.509-4.548-1.811-4.024-1.869-2.5-.565-4.036-1.247a.738.738 0 0 1-.25-.127l-3.983-3.086a.75.75 0 0 1-.131-.133l-3.321-4.319a.619.619 0 0 1-.113-.219l-1.328-4.319-2-8.058-.018-3.243-.649-2.948-3.291-8.539-1.34-4.364-2.571-5.965-3.215-2.983a.81.81 0 0 1-.166-.238l-1.286-2.995-6.572-7.945-6.62-7.38-6.672-8.68a.66.66 0 0 1-.131-.288l-1.994-10.492-3.173-7.048-5.114-2.965-7.256-3.68a.769.769 0 0 1-.274-.23l-3.982-5.555-3.393-8.16-2.584-5.401-4.547-4.225-7.852-4.848-6.56-4.269-3.875-1.201a.672.672 0 0 1-.185-.083l-3.982-2.469-8.727-7.475-4.619-3.685-5.988-4.945-3.9-2.406a.682.682 0 0 1-.154-.127l-3.982-4.319a.72.72 0 0 1-.18-.362l-.66-4.323a.698.698 0 0 1 .018-.271l1.328-4.936 2.023-4.427 3.28-6.089.65-6.042.66-8.008-.637-4.64-5.226-7.892-4.62-6.134-6.53-5.436-8.631-7.409-12.525-7.958-7.387-6.233-6.584-6.117L0 60.626v18.693l7.235 2.804 6.048 3.119a.811.811 0 0 1 .173.12l7.965 7.402 7.887 5.489 13.31 10.516a.697.697 0 0 1 .167.188l2.655 4.319c.035.056.059.116.077.18l1.988 7.405c.024.081.03.164.018.247l-1.328 11.725a.705.705 0 0 1-.214.425l-3.87 3.595-1.927 4.792-1.917 6.535 1.267 4.131 2.584 4.162 1.94 2.392 6.572 6.097 7.727 5.379 4.453.591c.065.009.13.025.196.05l4.643 1.853a.9.9 0 0 1 .238.149l3.852 3.584 3.81 1.181a.716.716 0 0 1 .207.099l14.609 9.872 2.75 2.542 6.66 6.811 2.727 3.785a.853.853 0 0 1 .101.208l1.989 6.788 5.946 13.498a.72.72 0 0 1 .054.318l-.661 8.022a.798.798 0 0 1-.077.26l-4.572 8.489v3.41l1.905 4.72 1.922 2.389 3.197 4.157 5.096 1.772a.894.894 0 0 1 .214.113l13.852 10.425 6.393 2.376h.512a.83.83 0 0 1 .262.041l7.304 2.47a.743.743 0 0 1 .345.24l3.983 4.936a.73.73 0 0 1 .137.274l1.981 8.003 3.935 7.897 4.602 6.706 4.667 7.425 3.303 6.766 3.257 3.629 2.613 2.422 5.226 3.634 11.287 8.022 4.488 1.769a.84.84 0 0 1 .22.136l11.286 9.872 7.929 6.142 3.298 3.06 4.56 2.423 5.196 1.8 19.758 2.434 6.53-.009 4.75.625 4.113 1.261a.762.762 0 0 1 .244.125l11.293 8.644 5.911 3.656 5.292 3.075 8.524 6.091 4.875.567 2.452-1.139a.773.773 0 0 1 .524-.053l2.655.62a.746.746 0 0 1 .524.423l1.327 3.083 1.334 6.148 3.22 4.195 3.381 6.263 6.578 8.545 3.905 3.614 3.173 1.747 4.369 1.734 6.257-.581 1.666-1.031 1.232-2.301a.784.784 0 0 1 .56-.384l7.965-1.233 2.119-.009 9.346.62 4.696.622a.72.72 0 0 1 .233.066l9.298 4.32 3.184 1.778h3.113l5.084-.597 2.429-1.129 2.982-2.773-.637-7.077-1.292-6.592-1.922-2.976-1.875-1.714-8.697-10.563-5.989-8.047-5.893-5.456-3.399-4.408-6.601-7.364-7.316-8.655-6-8.056-2.715-5.024-1.351-3.139-3.941-6.708-1.333-3.684-4.548-4.827-2.072-3.192a.605.605 0 0 1-.089-.224l-.673-3.086-.012-9.393.673-5.025.661-6.764 1.333-6.849 1.328-6.183 3.351-9.341 3.304-10.467 4.679-10.558 3.345-6.219 1.298-3.031a.81.81 0 0 1 .166-.238l1.328-1.236a.758.758 0 0 1 .202-.132l1.328-.617a.817.817 0 0 1 .738.03c.226.13.363.357.363.603v1.233a.577.577 0 0 1-.042.225l-.666 1.852a.607.607 0 0 1-.084.169l-1.202 1.67v1.963l.315.291 3.81 1.181 3.226 1.2h.822l3.095-3.449 13.317-12.388 5.351-4.353 5.351-3.735 3.304-2.456a.77.77 0 0 1 .179-.097l4.643-1.85 4.048-1.255 15.31-3.717 7.738-3.006 7.209-6.086 5.947-5.533 3.274-3.656 1.232-2.328 3.292-4.909 1.935-6.595v-4.842l-.655-4.22a.647.647 0 0 1 .006-.215l.66-3.703.661-4.908a.664.664 0 0 1 .101-.274l1.881-2.92v-4.74l-1.309-5.403-1.953-6.665-2.607-4.242-1.351-2.505a.667.667 0 0 1-.066-.188l-1.327-6.789-.012-12.465.625-2.984-1.083-2.016-3.048-1.131a.789.789 0 0 1-.351-.266l-1.328-1.852a.693.693 0 0 1-.119-.493l.661-4.319a.715.715 0 0 1 .417-.534l1.166-.542 5.786-7.167 3.233-10.224-.643-4.792-.661-3.675-1.321-5.516-.018-5.708.672-5.024 1.34-5.62.625-4.098-1.268-3.545-1.316-4.87-6.566-9.155a.666.666 0 0 1-.101-.221l-.66-2.467-.025-5.724c0-.075.012-.152.036-.224l.661-1.853 2.042-3.797a.833.833 0 0 1 .137-.182l1.988-1.85 6.53-9.748 3.262-7.903.282-1.067h-17.633l-3.9 4.834-9.364 8.713Z" fill="#000"/><path d="m236.902 3.216-6.584 3.061-13.84 9.197-11.899 9.225-3.929 3.659L182 42.596l-16.542 14.775-10.656 8.66-7.905 7.97a.793.793 0 0 1-.375.205l-2.357.547-3.06 4.563-1.298 9.61 1.31 6.68 3.286 8.528.69 3.186 5.304 18.467 3.268 9.742 11.888 15.955 3.304 5.525 1.256 1.165a.747.747 0 0 1 .137.185l3.256 6.047 5.863 4.848 11.346 11.78 12.59 11.694 4.595 3.667 2.108 2.58 7.768 5.993 11.09 4.85 16.953 1.819 9.126-3.03 3.66-2.293 3.233-5.406a.853.853 0 0 1 .172-.196l8.632-6.786 3.738-4.068.643-6.565-.006-5.342-1.929-4.187-3.631-5.047-2.822.526-1.922.014-2.857 1.587-.602 2.779a.68.68 0 0 1-.202.362l-1.988 1.85a.8.8 0 0 1-.542.208h-4.649a.824.824 0 0 1-.244-.036l-1.988-.617-6.786-3.769-4.078-3.147a.974.974 0 0 1-.149-.152l-3.982-5.553a.66.66 0 0 1-.125-.392v-1.076l-5.245-10.348a.67.67 0 0 1-.071-.301v-3.703c0-.166.066-.326.179-.453l3.321-3.703 3.37-3.13 3.863-6.037 5.893-9.745.649-3.581a.75.75 0 0 1 .065-.199l3.923-7.289.649-6.039 1.351-4.444c.03-.1.084-.191.155-.268l3.982-4.32 6.62-7.992 2.714-2.538 2.506-3.514 1.256-3.504v-4.71l-1.285-3.592a.637.637 0 0 1-.018-.395l1.988-7.403-.024-10.724-1.202-1.673-1.369-2.543-1.37-3.794a.6.6 0 0 1-.041-.224v-9.256l.678-3.819 2.036-4.482 2.697-4.391a.56.56 0 0 1 .119-.15l3.982-3.702 1.881-2.95 1.274-2.985 2.649-6.763 1.298-5.467.178-1.17h-35.106l-9.968 2.013-3.196 1.203ZM199.537 51.38a.724.724 0 0 1-.101.288l-3.983 6.17L177.5 74.556l-4.596 8.534-2.625 6.117a.791.791 0 0 1-.166.237l-4.643 4.32-4.62 4.906a.76.76 0 0 1-.387.218l-2.655.616a.806.806 0 0 1-.464-.028l-3.327-1.232a.732.732 0 0 1-.471-.56l-.66-4.321.654-8.788a.673.673 0 0 1 .161-.385l15.935-19.127 6.066-5.03 11.269-9.861 6.685-4.975a.815.815 0 0 1 .351-.146l3.982-.617a.905.905 0 0 1 .464.066l1.328.617a.7.7 0 0 1 .417.71l-.661 5.553Z" fill="#000"/><path d="M464.378 449.451a.69.69 0 0 1-.405.495l-2.655 1.233-4.601 2.45a.838.838 0 0 1-.381.094h-5.977l-4.107-.63-4.733-1.25-11.202-1.834-6.792-2.508-4.572-1.211-5.197-.594-13.363-3.103-8.673-2.478-11.275-3.08-15.781-1.211-8.566.002-4.536.609a.892.892 0 0 1-.243-.003l-7.197-1.217-6.53.609-1.733.55-1.904 1.186-7.364 3.736a.815.815 0 0 1-.363.086h-3.316l-3.47-.631a.752.752 0 0 1-.31-.127l-2.655-1.853-6.72-6.235-8.584-6.75a.717.717 0 0 1-.131-.133l-4.643-6.172-1.381-2.558-3.881-4.173-3.965-5.508-10.5-6.712-7.179-3.025-7.233-3.664-4.512-.6-5.203.008-4.107-.624-6.661-1.239-5.095-.589-8.471 2.422-6.114.641a.774.774 0 0 1-.321-.03l-5.976-1.85-7.793-.583-8.678-2.467h-1.876l-6.714-.619a.83.83 0 0 1-.262-.072l-2.655-1.234-4.131-3.174a.626.626 0 0 1-.191-.23l-4.649-8.638a.63.63 0 0 1-.077-.227l-.667-4.936-3.887-10.193-4.524-4.206a.78.78 0 0 1-.137-.185l-1.327-2.467-2.477-3.442-3.107-1.154-5.929-1.836-6.685-2.483a.796.796 0 0 1-.321-.232l-3.982-4.936-1.935-2.995-2.917-1.626-3.709.575a.847.847 0 0 1-.547-.11l-3.982-2.467-4.524-1.792-2.709-1.859-8.501-2.433-5.988-1.855-6.548-1.214a.815.815 0 0 1-.309-.127l-5.31-3.703-4.566-2.42a.7.7 0 0 1-.28-.251l-1.988-3.086-2.018-3.747-1.964-3.042a.69.69 0 0 1-.09-.208l-1.327-5.552-1.952-4.195a.604.604 0 0 1-.054-.202l-.66-5.553-1.322-6.111-.012-3.222-.661-6.1-.006-1.922-.583-2.104-.518-.481a.663.663 0 0 1-.197-.307l-1.327-4.319-2.607-4.815-5.965-10.475a.665.665 0 0 1-.083-.232l-1.31-8.525-1.226-2.282-9.888-10.425a.462.462 0 0 1-.107-.146l-1.94-3.601-2.572-2.386a.952.952 0 0 1-.143-.185l-1.327-2.47-2.566-2.959-5.363-8.093-4.036-8.731-2.024-6.88-2.607-4.808-3.953-6.12-3.994-6.816-2.03-6.85-11.245-18.441-5.988-11.136L0 130.575v60.181l1.306.606 4.75 3.144c.09.058.167.136.22.224l5.31 8.639c.036.055.06.116.078.18l1.327 4.936.524 1.465 1.393.429 3.739-1.161.03-.009-.542-3.539-1.31-4.864-.024-2.638c0-.39.34-.708.762-.708h1.988c.173 0 .34.055.477.155l3.321 2.466a.684.684 0 0 1 .244.329l1.965 5.467 13.22 18.431 8.596 10.453 6.578 6.1 4.542 3.011c.13.086.232.21.28.351l.666 1.85 1.34 4.35 7.232 12.195a.48.48 0 0 1 .072.168l.63 2.34 3.233 4.209a.667.667 0 0 1 .13.287l1.995 10.489 3.286 8.525 2.684 10.566.673 6.886 3.268 10.259 4.584 6.706 1.887 1.728 7.09 5.387 3.779.589 5.286.611 4.012.619a.86.86 0 0 1 .239.078l7.298 3.703 17.221 7.383 5.327 2.477 10.066 6.853 3.262 1.811 2.602 1.209 2.774 1.919c.19.135.303.343.303.567v2.466c0 .067-.011.13-.029.194l-1.328 4.319a.727.727 0 0 1-.274.373l-2.512 1.751-1.869 3.47-.589 2.754 1.149 2.135 9.191 7.934 6.554 4.258a.717.717 0 0 1 .172.155l1.994 2.47a.574.574 0 0 1 .108.177l1.988 4.936 1.238 2.295 3.821 3.556 4.566 2.422 7.828 2.412 5.899 1.214 7.102.594 7.875-1.219 7.798-3.039a.75.75 0 0 1 .375-.05l5.971.617a.79.79 0 0 1 .256.069l13.119 6.097h6.459l6.56-.617 10.03-.002 6.721.622a.794.794 0 0 1 .262.072l2.655 1.233 12.03 7.45a.659.659 0 0 1 .167.143l8.631 9.873 5.262 4.88 9.245 7.37 8.673 8.058 2.988 1.642h2.321l3.864-1.197a.824.824 0 0 1 .244-.036h4.649l9.132-1.834c.065-.013.13-.01.19-.016l16.477.614 7.185-1.825a.822.822 0 0 1 .202-.025h9.298a.86.86 0 0 1 .268.044l5.179 1.809h2.518l30.037 6.186 5.328 1.241 5.869.6a.707.707 0 0 1 .292.089l4.56 2.417 19.144 4.294 3.143-.019 6.137 1.252 11.167.601 14.519-.617 9.119-2.442 5.816-3.025 3.543-1.646v-46.603l-7.549-4.211-6.465-1.778-6.566-1.217-4.797-1.897a.77.77 0 0 1-.197-.113l-4.649-3.703a.672.672 0 0 1-.268-.536v-2.34l-2.613-6.692a.6.6 0 0 1-.036-.323l.667-4.32a.661.661 0 0 1 .149-.323l1.922-2.392 4.614-11.017 1.28-7.873-.006-10.384-.661-6.722-1.321-6.097-1.286-2.959-1.364-5.666-3.946-9.145-1.357-5.027a.637.637 0 0 1 .03-.434l1.327-3.086 4.619-8.589.643-4.206.655-8.47-1.958-6.673-.685-6.908-.006-5.619c0-.188.077-.368.22-.5l1.988-1.85 3.471-1.958 5.113-4.173 1.828-2.831.654-18.945 1.334-10.55.66-10.45a.678.678 0 0 1 .042-.182l2.655-7.406 2.619-15.928 5.983-24.727-.018-3.548.673-5.027 1.994-9.913-.012-7.276.62-4.064V56.698l-1.757-2.446-3.899-3.02a.721.721 0 0 1-.197-.23l-.66-1.233a.713.713 0 0 1-.078-.315v-2.47c0-.127.036-.254.107-.364l1.882-2.915v-3.507c0-.39.339-.707.762-.707h.666c.238 0 .464.105.607.285l1.989 2.466.578.536v-29.64h-2.335l-1.166.542-3.37 1.26-4.827.659-6.822-.611-4.286.588-1.851 1.145a.778.778 0 0 1-.185.083l-1.815.562.125.116a.704.704 0 0 1 .208.384l.667 3.703 1.262 3.484 1.916 2.378 2.59 2.392a.935.935 0 0 1 .143.186l1.988 3.702c.03.064.054.136.071.208l1.328 8.022.006 16.152.667 7.347 1.958 6.025 1.333 4.97 1.346 11.818.649 2.373.023 4.49-.69 2.642-.714 1.377-8.644 14.83-1.363 1.908-2.578 6.634-1.279 4.178v7.306l.595 2.713 5.786 4.781a.71.71 0 0 1 .244.39l.625 2.909 3.191 3.564a.741.741 0 0 1 .119.175l1.994 4.319a.742.742 0 0 1 .059.279v3.703l-.666 8.688a.725.725 0 0 1-.125.343l-3.983 5.553-11.965 15.45-3.964 5.53-5.405 5.044-5.203 7.892-7.369 8.108-2.578 4.214-3.976 6.778a.685.685 0 0 1-.125.16l-1.328 1.233-5.928 6.737-2.626 2.447-3.934 6.7a.697.697 0 0 1-.179.205l-3.982 3.086-3.863 4.817a.676.676 0 0 1-.185.163l-1.828 1.128-.446.841 1.22 5.11 2.5 2.32 2.917 1.607 6.25-1.162 1.078-.503 3.875-4.803c.042-.052.09-.1.149-.141l2.655-1.85a.907.907 0 0 1 .607-.127l3.316.617a.779.779 0 0 1 .19.06l3.983 1.85a.756.756 0 0 1 .369.371l1.327 3.086.703 3.21 4.625 12.245 3.327 11.147c.024.08.036.166.03.251l-.66 7.406-.673 4.361-1.286 5.386 1.899 4.11c.035.088.06.182.06.279v2.362l6.601 20.261 4.607 9.164a.659.659 0 0 1 .066.21l.666 4.936.006 13.666-.666 8.077a.685.685 0 0 1-.072.241l-3.982 8.022-6.709 8.755-2.565 3.578-1.232 4.579 9.851 20.14 3.923 5.453a.64.64 0 0 1 .119.304l.661 4.936-1.983 24.824-.684 3.172Z" fill="#000"/></svg>