<svg height="512pt" viewBox="0 0 512 512" width="512pt" xmlns="http://www.w3.org/2000/svg"><g fill="#ffc66c"><path d="m278.351562 284c-16.296874 16.296875-21.339843 34.289062-22.167968 48.644531 15.019531 1.765625 40.292968.390625 62.433594-21.75 16.351562-16.351562 21.386718-34.316406 22.191406-48.640625-15.015625-1.769531-40.304688-.40625-62.457032 21.746094zm0 0"/><path d="m278.351562 190.929688c-16.296874 16.296874-21.339843 34.289062-22.167968 48.640624 15.019531 1.765626 40.292968.394532 62.433594-21.75 16.351562-16.347656 21.386718-34.3125 22.191406-48.640624-15.015625-1.769532-40.304688-.40625-62.457032 21.75zm0 0"/><path d="m273.0625 87.164062c-10.949219 10.441407-23.152344 28.046876-23.152344 54.652344 0 26.597656 12.195313 44.199219 23.144532 54.640625 10.945312-10.441406 23.140624-28.042969 23.140624-54.640625 0-26.695312-12.1875-44.25-23.132812-54.652344zm0 0"/><path d="m169.359375 262.488281c1.214844 13.910157 6.558594 30.816407 22.023437 46.28125 23.066407 23.066407 49.53125 23.59375 64.261719 21.511719-1.230469-13.933594-6.578125-30.867188-21.996093-46.28125-23.082032-23.082031-49.566407-23.59375-64.289063-21.511719zm0 0"/><path d="m169.359375 169.417969c1.214844 13.90625 6.558594 30.816406 22.023437 46.277343 23.066407 23.070313 49.53125 23.59375 64.261719 21.515626-1.230469-13.933594-6.578125-30.867188-21.996093-46.28125-23.082032-23.082032-49.566407-23.59375-64.289063-21.511719zm0 0"/></g><path d="m445.746094 58.253906c-2.332032-2.335937-4.976563-4.164062-7.796875-5.503906-2.820313 1.339844-5.464844 3.171875-7.800781 5.503906-10.933594 10.933594-10.933594 28.660156 0 39.597656 2.335937 2.332032 4.980468 4.164063 7.800781 5.5 2.820312-1.335937 5.464843-3.167968 7.796875-5.5 10.9375-10.9375 10.9375-28.664062 0-39.597656zm0 0" fill="#ff5d5d"/><path d="m105.851562 414.148438c-2.335937-2.332032-4.980468-4.164063-7.800781-5.5-2.820312 1.335937-5.464843 3.167968-7.796875 5.5-10.9375 10.9375-10.9375 28.664062 0 39.597656 2.332032 2.335937 4.976563 4.164062 7.796875 5.503906 2.820313-1.339844 5.464844-3.171875 7.800781-5.503906 10.933594-10.933594 10.933594-28.660156 0-39.597656zm0 0" fill="#ff5d5d"/><path d="m148.359375 262.269531c-2.605469 8.105469-13.808594 50.308594 21.453125 85.570313 20.40625 20.40625 43.050781 25.273437 60.019531 25.273437 6.28125 0 11.773438-.667969 16.097657-1.460937v65.433594c0 5.519531 4.476562 10 10 10 5.523437 0 10-4.480469 10-10v-65.457032c4.34375.800782 9.886718 1.484375 16.238281 1.484375 16.964843 0 39.617187-4.871093 60.019531-25.273437 35.261719-35.261719 24.058594-77.464844 21.453125-85.574219-.882813-3.015625-3.152344-5.476563-6.164063-6.578125-.609374-.222656-5.539062-1.96875-13.195312-3.085938 32.710938-34.804687 21.910156-75.464843 19.359375-83.40625-.882813-3.015624-3.152344-5.480468-6.164063-6.582031-1.40625-.515625-25.886718-9.144531-53.777343.5625 1.574219-6.460937 2.496093-13.566406 2.496093-21.359375 0-49.867187-37.761718-71.785156-45.339843-75.675781-2.757813-1.511719-6.105469-1.648437-9.011719-.296875-1.875.871094-45.929688 21.953125-45.929688 75.972656 0 7.808594.925782 14.925782 2.503907 21.398438-27.941407-9.773438-52.488281-1.117188-53.894531-.601563-3.011719 1.101563-5.277344 3.566407-6.160157 6.582031-2.554687 7.941407-13.351562 48.601563 19.355469 83.40625-7.65625 1.117188-12.585938 2.863282-13.195312 3.085938-3.011719 1.101562-5.28125 3.566406-6.164063 6.582031zm179.6875 71.429688c-23.078125 23.078125-49.824219 20.25-60.488281 17.886719-2.324219-10.640626-5.136719-37.515626 17.863281-60.515626 7.355469-7.355468 15.085937-12.074218 22.550781-15.019531 1.421875-.457031 2.855469-.960937 4.296875-1.519531 14.226563-4.4375 26.984375-2.816406 33.601563-1.355469 2.515625 11.464844 4.914062 37.785157-17.824219 60.523438zm17.824219-153.59375c2.515625 11.464843 4.914062 37.78125-17.824219 60.519531-7.339844 7.339844-15.046875 12.050781-22.492187 15-1.449219.464844-2.910157.980469-4.382813 1.546875-14.253906 4.445313-27.03125 2.804687-33.628906 1.335937-.738281-3.332031-1.523438-8.230468-1.554688-14.085937 0-.085937.003907-.167969.003907-.253906-.015626-11.742188 3.023437-27.277344 15.457031-41.867188 1.472656-1.464843 2.953125-3.039062 4.421875-4.730469 22.945312-22.574218 49.378906-19.816406 60-17.464843zm-89.867188-93.6875c9.886719 6.324219 30.191406 23.238281 30.191406 55.398437 0 19.109375-7.171874 32.820313-14.964843 42.089844-1.621094 1.621094-3.136719 3.257812-4.566407 4.90625-3.996093 3.886719-7.824218 6.65625-10.59375 8.421875-3.132812-2.011719-7.648437-5.324219-12.238281-10.113281-.46875-.511719-.941406-1.023438-1.425781-1.535156-8.355469-9.28125-16.496094-23.519532-16.496094-43.769532 0-32.597656 20.863282-49.511718 30.09375-55.398437zm-89.878906 93.707031c10.679688-2.320312 37.496094-5.078125 60.453125 17.875.148437.148438.277344.292969.421875.4375.878906.984375 1.757812 1.925781 2.636719 2.832031 11.96875 13.507813 15.714843 27.933594 16.292969 39.464844v6.671875c-.222657 4.539062-.859376 8.355469-1.46875 11.097656-6.621094 1.472656-19.410157 3.109375-33.664063-1.34375-1.445313-.554687-2.882813-1.0625-4.3125-1.519531-7.457031-2.949219-15.179687-7.664063-22.53125-15.015625-22.726563-22.726562-20.34375-49.023438-17.828125-60.5zm0 93.070312c6.722656-1.460937 19.835938-3.089843 34.355469 1.625.957031.355469 1.910156.695313 2.859375 1.007813 7.6875 2.917969 15.671875 7.679687 23.238281 15.242187 14.417969 14.421876 18.726563 30.269532 19.351563 42.738282v6.671875c-.222657 4.539062-.859376 8.351562-1.46875 11.09375-10.6875 2.375-37.433594 5.199219-60.507813-17.875-22.726563-22.726563-20.34375-49.027344-17.828125-60.503907zm0 0"/><path d="m86.050781 395.949219c-6.015625 0-11.8125 1.398437-17.035156 4.023437-31.652344-41.085937-49.015625-91.910156-49.015625-143.972656 0-130.132812 105.867188-236 236-236 16.582031 0 33.136719 1.726562 49.207031 5.136719 5.40625 1.144531 10.710938-2.308594 11.855469-7.707031 1.148438-5.40625-2.304688-10.710938-7.707031-11.859376-17.429688-3.695312-35.382813-5.570312-53.355469-5.570312-68.378906 0-132.667969 26.628906-181.019531 74.980469-48.351563 48.351562-74.980469 112.640625-74.980469 181.019531 0 56.976562 19.171875 112.597656 54.097656 157.382812-3.929687 6.078126-6.046875 13.15625-6.046875 20.566407 0 10.148437 3.953125 19.691406 11.132813 26.871093 7.175781 7.175782 16.71875 11.128907 26.867187 11.128907 10.152344 0 19.695313-3.953125 26.871094-11.128907 7.179687-7.179687 11.128906-16.722656 11.128906-26.871093 0-10.148438-3.953125-19.691407-11.128906-26.871094-7.175781-7.175781-16.71875-11.128906-26.871094-11.128906zm12.730469 50.726562c-7.019531 7.019531-18.4375 7.019531-25.457031 0-3.398438-3.398437-5.273438-7.917969-5.273438-12.726562 0-4.808594 1.875-9.328125 5.273438-12.730469 3.507812-3.507812 8.117187-5.261719 12.726562-5.261719s9.21875 1.753907 12.730469 5.261719c3.398438 3.398438 5.269531 7.921875 5.269531 12.730469 0 4.808593-1.871093 9.328125-5.269531 12.726562zm0 0"/><path d="m457.902344 98.617188c3.929687-6.078126 6.046875-13.15625 6.046875-20.566407 0-10.148437-3.953125-19.691406-11.132813-26.871093-7.175781-7.175782-16.71875-11.128907-26.867187-11.128907-10.152344 0-19.695313 3.953125-26.871094 11.128907-7.175781 7.179687-11.128906 16.722656-11.128906 26.871093 0 10.148438 3.953125 19.691407 11.128906 26.871094 7.175781 7.175781 16.71875 11.128906 26.871094 11.128906 6.015625 0 11.8125-1.398437 17.039062-4.023437 31.648438 41.085937 49.011719 91.910156 49.011719 143.972656 0 130.132812-105.867188 236-236 236-14 0-28.023438-1.234375-41.6875-3.667969-5.433594-.96875-10.632812 2.652344-11.597656 8.089844-.972656 5.4375 2.652344 10.628906 8.089844 11.597656 14.816406 2.640625 30.023437 3.980469 45.195312 3.980469 68.378906 0 132.667969-26.628906 181.019531-74.980469 48.351563-48.351562 74.980469-112.640625 74.980469-181.019531 0-56.976562-19.171875-112.597656-54.097656-157.382812zm-44.679688-7.839844c-7.019531-7.015625-7.019531-18.433594 0-25.453125 3.398438-3.402344 7.917969-5.273438 12.726563-5.273438 4.808593 0 9.328125 1.871094 12.726562 5.273438 3.402344 3.398437 5.273438 7.917969 5.273438 12.726562 0 4.808594-1.871094 9.328125-5.273438 12.726563-3.398437 3.402344-7.917969 5.273437-12.726562 5.273437-4.808594 0-9.328125-1.871093-12.726563-5.273437zm0 0"/><path d="m168.132812 475.101562-3.773437 9.261719 3.746094-9.273437c-5.121094-2.066406-10.949219.402344-13.019531 5.523437-2.070313 5.121094.402343 10.949219 5.523437 13.019531l.308594.125c1.179687.449219 2.394531.664063 3.589843.664063 4.027344 0 7.832032-2.4375 9.355469-6.414063 1.976563-5.160156-.570312-10.929687-5.730469-12.90625zm0 0"/><path d="m344.21875 37.039062.113281.046876c1.226563.496093 2.496094.730468 3.742188.730468 3.957031 0 7.703125-2.363281 9.277343-6.253906 2.066407-5.121094-.40625-10.949219-5.527343-13.019531l-.179688-.070313c-5.125-2.050781-10.945312.441406-12.996093 5.570313-2.054688 5.128906.441406 10.945312 5.570312 12.996093zm0 0"/></svg>