<svg id="Layer_1" enable-background="new 0 0 511.789 511.789" height="512" viewBox="0 0 511.789 511.789" width="512" xmlns="http://www.w3.org/2000/svg"><g><g><path d="m429.865 181.465c0 146.91-173.97 322.82-173.97 322.82s-7.34-7.42-19-20.49c-45.13-50.55-154.97-185.6-154.97-302.33 0-89.66 67.83-163.47 154.97-172.93 6.24-.68 12.58-1.03 19-1.03 96.08-.001 173.97 77.88 173.97 173.96z" fill="#80fcff"/></g><g><path d="m429.865 181.465c0 146.91-173.97 322.82-173.97 322.82s-7.34-7.42-19-20.49c45.13-50.55 154.97-185.6 154.97-302.33 0-89.66-67.83-163.47-154.97-172.93 6.24-.68 12.58-1.03 19-1.03 96.08-.001 173.97 77.88 173.97 173.96z" fill="#50deff"/></g><g><path d="m361.695 181.465c0 11.89-1.96 23.33-5.58 34-14.16 41.75-53.68 71.8-100.22 71.8-6.84 0-13.53-.65-20.01-1.89-37.6-7.2-68.13-34.3-80.21-69.91-3.62-10.67-5.58-22.11-5.58-34s1.96-23.32 5.58-33.99c12.08-35.62 42.61-62.72 80.21-69.92 6.48-1.24 13.17-1.89 20.01-1.89 46.54 0 86.06 30.05 100.22 71.81 3.62 10.67 5.58 22.099 5.58 33.99z" fill="#10e881"/></g><g><path d="m361.695 181.465c0 11.89-1.96 23.33-5.58 34-14.16 41.75-53.68 71.8-100.22 71.8-6.84 0-13.53-.65-20.01-1.89 48.87-9.34 85.81-52.31 85.81-103.91s-36.94-94.57-85.81-103.91c6.48-1.24 13.17-1.89 20.01-1.89 46.54 0 86.06 30.05 100.22 71.81 3.62 10.67 5.58 22.099 5.58 33.99z" fill="#00c18e"/></g><g><path d="m356.115 215.465c-14.16 41.75-53.68 71.8-100.22 71.8-6.84 0-13.53-.65-20.01-1.89-37.6-7.2-68.13-34.3-80.21-69.91z" fill="#ff6536"/></g><g><path d="m356.115 215.465c-14.16 41.75-53.68 71.8-100.22 71.8-6.84 0-13.53-.65-20.01-1.89 37.61-7.19 68.15-34.29 80.23-69.91z" fill="#f71d00"/></g><g><path d="m361.695 181.465c0 11.89-1.96 23.33-5.58 34h-200.44c-3.62-10.67-5.58-22.11-5.58-34s1.96-23.32 5.58-33.99h200.44c3.62 10.67 5.58 22.099 5.58 33.99z" fill="#f9ef63"/></g><g><path d="m361.695 181.465c0 11.89-1.96 23.33-5.58 34h-40c3.62-10.67 5.58-22.11 5.58-34s-1.96-23.32-5.58-33.99h40c3.62 10.67 5.58 22.099 5.58 33.99z" fill="#f4dd45"/></g></g><g><g><path d="m255.895 0c-100.062 0-181.469 81.406-181.469 181.468 0 36.918 10.67 78.661 31.713 124.069 16.287 35.145 38.717 72.429 66.668 110.817 2.438 3.348 7.128 4.087 10.478 1.648 3.349-2.438 4.087-7.129 1.648-10.478-43.57-59.839-95.507-147.632-95.507-226.057 0-91.79 74.678-166.467 166.469-166.467s166.468 74.677 166.468 166.468c0 73.875-46.495 156.07-85.499 212.013-33.855 48.558-68.093 86.271-80.971 99.961-8.948-9.505-28.191-30.582-50.355-58.728-2.564-3.255-7.279-3.816-10.533-1.252-3.254 2.563-3.815 7.278-1.252 10.532 31.042 39.42 56.555 65.311 56.809 65.568 1.409 1.424 3.329 2.226 5.333 2.226s3.924-.802 5.333-2.226c.439-.444 44.445-45.154 87.803-107.303 25.531-36.596 45.892-72.044 60.518-105.36 18.457-42.042 27.815-80.878 27.815-115.432-.001-100.061-81.407-181.467-181.469-181.467z"/></g><g><path d="m323.429 252.898c-3.009 2.846-3.141 7.593-.295 10.603 2.846 3.009 7.592 3.141 10.603.295 22.866-21.627 35.459-50.865 35.459-82.327 0-62.474-50.827-113.301-113.301-113.301s-113.301 50.827-113.301 113.301 50.827 113.301 113.301 113.301c16.561 0 32.525-3.495 47.451-10.387 3.76-1.736 5.401-6.193 3.665-9.954-1.737-3.76-6.194-5.403-9.954-3.665-12.939 5.975-26.788 9.005-41.162 9.005-39.385 0-73.434-23.282-89.108-56.807h178.309c-5.168 11.09-12.457 21.224-21.667 29.936zm-162.208-44.936c-2.363-8.432-3.627-17.318-3.627-26.494s1.264-18.063 3.627-26.495h40.075c4.142 0 7.5-3.358 7.5-7.5s-3.358-7.5-7.5-7.5h-34.509c15.674-33.524 49.723-56.806 89.108-56.806s73.434 23.282 89.108 56.806h-108.788c-4.142 0-7.5 3.358-7.5 7.5s3.358 7.5 7.5 7.5h114.353c2.363 8.432 3.627 17.318 3.627 26.495 0 9.104-1.216 17.993-3.572 26.494z"/></g></g></svg>