<svg height="512" viewBox="0 0 512 512" width="512" xmlns="http://www.w3.org/2000/svg"><g id="Out_line" data-name="Out line"><path d="m28.542 406.58594 35.499-24.48194a338.11256 338.11256 0 0 1 383.918 0l35.499 24.48194 9.084-13.17188-35.499-24.48193a356.34677 356.34677 0 0 0 -47.21-27.48206 79.9992 79.9992 0 1 0 -145.833-45.45007 80.73619 80.73619 0 0 0 .67969 10.44666c-2.88916-.06971-5.78125-.11756-8.67969-.11756-2.89819 0-5.79053.04785-8.67993.11756a80.00237 80.00237 0 1 0 -159.32007-10.44666 79.79264 79.79264 0 0 0 14.16724 45.45 356.335 356.335 0 0 0 -47.21024 27.48213l-35.499 24.48193zm315.458-118.58594a8 8 0 1 1 -8 8 8.00917 8.00917 0 0 1 8-8zm-63.49854 16h15.49854v-16h-15.48242a63.48382 63.48382 0 0 1 4.49316-16.82007l13.41992 7.74829 8-13.85644-13.3916-7.73169a64.54053 64.54053 0 0 1 12.30176-12.30115l7.73145 13.39172 13.85546-8-7.748-13.41992a63.484 63.484 0 0 1 16.82027-4.49292v15.48218h16v-15.48218a63.484 63.484 0 0 1 16.82031 4.49292l-7.748 13.41992 13.85546 8 7.73145-13.39172a64.54053 64.54053 0 0 1 12.30176 12.30115l-13.3916 7.73169 8 13.85644 13.41992-7.74829a63.98519 63.98519 0 0 1 -8.01367 63.51416 351.151 351.151 0 0 0 -44.49854-15.58935 23.9982 23.9982 0 1 0 -13.65381-46.00769l-10.42285-13.89734-12.7998 9.60058 10.42968 13.90625a23.94741 23.94741 0 0 0 3.69776 30.91455 353.881 353.881 0 0 0 -46.74219-6.40881q-.28203-1.5987-.48442-3.21228zm-120.50146-8a8 8 0 1 1 8 8 8.00917 8.00917 0 0 1 -8-8zm-55.48706 8h15.48706v-16h-15.48218a63.47436 63.47436 0 0 1 4.49292-16.82007l13.41992 7.74829 8-13.85644-13.39135-7.73169a64.53769 64.53769 0 0 1 12.30127-12.30115l7.73169 13.39172 13.85546-8-7.748-13.41992a63.484 63.484 0 0 1 16.82027-4.49292v15.48218h16v-15.48218a63.484 63.484 0 0 1 16.82031 4.49292l-7.748 13.41992 13.85546 8 7.73169-13.39172a64.53769 64.53769 0 0 1 12.30127 12.30115l-13.39135 7.73169 8 13.85644 13.41992-7.74829a63.64764 63.64764 0 0 1 5.0107 24.82007 64.52816 64.52816 0 0 1 -.98584 11.21228 353.88651 353.88651 0 0 0 -46.74219 6.40881 23.98584 23.98584 0 0 0 -29.56543-37.59094l-13.90674-10.43-9.5996 12.7998 13.897 10.42273a23.999 23.999 0 0 0 16.4258 30.28206 351.18063 351.18063 0 0 0 -44.49878 15.58935 63.755 63.755 0 0 1 -12.51128-30.69409z"/><path d="m483.458 212.25635 9.084-13.17188-35.499-24.48147a354.11557 354.11557 0 0 0 -402.08594 0l-35.49906 24.48147 9.084 13.17188 35.499-24.48194a338.1137 338.1137 0 0 1 383.918.00049z"/><path d="m32 328a40.04552 40.04552 0 0 1 40-40v-16a56.06322 56.06322 0 0 0 -56 56z"/><path d="m52 311.351h16v25.298h-16z" transform="matrix(.316 -.949 .949 .316 -266.347 278.463)"/><path d="m440 272v16a40.04552 40.04552 0 0 1 40 40h16a56.06322 56.06322 0 0 0 -56-56z"/><path d="m431.351 308h25.298v16.001h-25.298z" transform="matrix(.316 -.949 .949 .316 3.817 637.296)"/><path d="m194.34277 146.34326-24 24a8 8 0 0 0 0 11.31348l24 24 11.31446-11.31348-10.34351-10.34326h28.68628v-16h-28.68628l10.34351-10.34326z"/><path d="m288 184h28.68652l-10.34375 10.34326 11.31446 11.31348 24-24a8 8 0 0 0 0-11.31348l-24-24-11.31446 11.31348 10.34375 10.34326h-28.68652z"/><path d="m248 168h16v16h-16z"/><path d="m80 200h16v16h-16z"/><path d="m416 200h16v16h-16z"/></g></svg>