<svg width="306" height="309" viewBox="0 0 306 309" fill="none" xmlns="http://www.w3.org/2000/svg"><path d="M186.464 307.543C112.956 318.135 12.27 265.282 1.65 191.583-8.97 117.884 53.727 54.249 127.234 43.656c73.508-10.592 141.711 40.562 152.331 114.261 10.62 73.699-19.594 139.033-93.101 149.626z" fill="#F9C273"/><path d="M245 203l61 22-38.5 75-60.5-27c5.667-8.5 18-27.1 22-33.5 4-6.4 12.333-27 16-36.5z" fill="#fff"/><path d="M227.6 196.9s10.1 3.9 14.3 6.3c4.2 2.5-27.7 65.1-31.3 63.3-7-3.5-15.3-7.1-15.3-7.1" fill="#fff"/><path d="M92.9 154.199s19.7 13.1 22.8 12.8c3.1-.3 6.8-.4 6.8-.4s-2 9.8-2.7 10c-.6.2-26.9-22.4-26.9-22.4z" fill="#000"/><path d="M50.7 167.1s23.6 1.4 26.1-.4c2.5-1.8 5.7-3.8 5.7-3.8s3.1 9.5 2.7 10c-.4.6-34.5-5.8-34.5-5.8z" fill="#000"/><path d="M217.9 204.299c-4.6-2.9-7.9-6.9-10.4-13.1-2.4-6 .1-10-3.4-15.4-2.9-4.4-9.6-10.7-14.2-13.4-19.4-11.1-15.1-38.5-15.9-42.2-.8-3.7-2.4-11.8-6.2-11.6-2.7.2-4.9 2.3-6.5 4.5-5.2 7.6-5.4 17.5-5.6 26.8-.2 8.5-.8 17.6-5.5 24.5v58.6c1.2.4 2.2.8 3.1 1.2 7.6 3.9 34.7-5.5 34.7-5.5l10.5 15.3 23.5-31.7-4.1 2z" fill="#000"/><path d="M215.4 204.302c2.7 1.7 5.9 3 9.7 4.2l-9.7-4.2zm-10.3-13.1c-2.4-6-2.3-13-5.8-18.4-2.9-4.4-7.2-7.7-11.8-10.4-19.4-11.1-13.7-43-14.5-46.7-.8-3.7-3.8-7.3-7.6-7.1-2.7.2-4.9 2.3-6.5 4.5-5.2 7.6-5.4 17.5-5.6 26.8-.2 9.3-.9 19.3-6.9 26.4-.5.5-4.3 5.6-4.9 6l.5.2h-.4c-2.6-4.9-15.7-29.4-25-37-10.4-8.5-21.2-9-22.8-3.7-1.6 5.3 7.8 12.6 14.4 22.4 2.8 4.2 7 12.7 10.8 20.8l-.6.2c-3.4-2.7-29.3-23.1-40.9-29.8-12.4-7.2-26.6-12.7-30.5-8-3.9 4.6 3.9 10.8 10.2 16.1 2.7 2.3 12.8 10.4 23.3 18.8-1.7-.6-36.7-5.7-47.9-5.7-9.8.1-14.6 8-8.5 14 2.3 2.2 53.4 12.6 62.8 16.5 9.5 3.9 25.9 14.3 31.9 18.4 5.9 4.1 24.3 4.8 32 8.7 7.6 3.9 50.6 27 50.6 27l.9-.6 22.8-42.3-9.7-4.2c-4.6-2.7-7.8-6.7-10.3-12.9z" fill="#fff"/><path d="M219.9 203.699c.8-1.7 5.7-9.3 6.4-6 .4 2-1.6 5.8-2.3 7.6-3.2 8.4-7.1 16.5-11.1 24.4-3.9 7.6-7.8 15.3-12.4 22.5-.7 1.2-2.9 5.6-4.4 6-1.6.4-3.4-4.4-3.5-5.8-.2-1.7 0-3.4.5-5 .4-1.2-2.1-1.7-2.4-.5-1 3.2-.9 7 .8 9.8 1.2 1.9 3.6 4.5 6 3.3 1.7-.8 3.1-3.4 4.1-4.9 2.2-3.2 4.1-6.6 6-10 5-8.8 9.6-17.9 13.8-27.1 2.7-5.9 7-13.2 7.4-19.8.2-2.2-.8-3.5-3.3-3.5-3.8.1-6.5 4.9-7.8 7.9-.5 1.3 1.8 2.2 2.2 1.1z" fill="#000"/><path d="M227.1 197.7c1.7.7 3.4 1.3 5.1 2 2.2.9 7 2 8.5 3.9 1.1 1.3-.2 4.1-.7 5.8-2.9 8.7-7 17.1-11.1 25.3-4.1 8.3-8.4 16.6-13.4 24.5-.9 1.5-2.8 5.7-4.6 6.3-1.3.5-6.9-3.2-8.6-3.9-2.1-1-4.2-1.9-6.3-2.8-1.3-.6-2.6 1-1 1.6 1.7.7 3.4 1.5 5 2.2 1.7.7 3.3 1.5 4.9 2.3 1.6.7 3.8 2.5 5.5 2.6 1.4.1 2-.2 3-1.3 4.4-4.3 7.4-11 10.3-16.3 4.5-8.2 8.8-16.6 12.7-25.2 2.6-5.8 6.1-12.2 7.1-18.6.3-1.7.3-2.5-.9-3.7-2-2-6.2-3-8.8-4.1-1.9-.8-3.7-1.5-5.6-2.2-1.4-.5-2.6 1-1.1 1.6z" fill="#000"/><path d="M203.5 256.8c-.2.9.2 1.901.9 2.401.6.5 1.4.699 2.2.699.4 0 .9-.1 1.3-.3.4-.2.8-.6 1-1.1.3-.8.1-1.8-.3-2.5-.3-.4-.6-.8-.9-1.1-.6-.5-3.1-1.4-4 1.1" fill="#000"/><path d="M225.3 206.6c-7.1-2.3-13.4-5.5-17.3-12.1-4.3-7.2-3.7-16.2-8.2-23.2-4.2-6.5-11.2-8.8-16.5-13.9-4.8-4.5-7.3-10.8-8.6-17.1-1.1-5.4-1.4-10.9-1.3-16.4.1-2.9.6-6.1.2-9-.7-4.8-5.2-9.1-10.2-7.8-5.8 1.6-8.8 8.9-10.1 14.1-4.4 16.9 1.8 36.6-13.1 49.7-1.2 1.1.4 2.2 1.5 1.2 9.1-8 11.7-19.9 12.1-31.6.3-8.9-.1-18.7 4.7-26.6 2.4-3.9 7.5-6.9 11.1-2.4.9 1.1 1.5 2.6 1.7 4.1.2 1.3 0 2.7-.1 4-.4 9.3-.4 18.8 2.8 27.7 1.7 4.6 4.2 8.8 7.8 12.1 6.1 5.4 13.8 7.9 17.3 16 3.3 7.7 3.1 16 8.4 22.9 4.1 5.4 10.1 8.2 16.4 10.2 1.1.3 2.7-1.5 1.4-1.9z" fill="#000"/><path d="M164.4 191.901c-.6-4.6-3.8-8.8-7.3-11.6-3.2-2.6-7-4.5-10.6-6.5-1-.6-4.1-1.9-4.4-2.2-1.6-1.5-3.8-7.2-5.3-9.8-3.6-6.3-7.4-12.5-11.7-18.4-4.1-5.6-8.5-10.5-14.6-13.8-4.4-2.4-13.1-5.8-17.1-.9-3 3.6-.1 8.2 2.2 11.3 5 6.7 10.7 12.6 14.7 20.1 5.9 10.9 10.9 22.3 15.9 33.6.6 1.4 2-.5 1.5-1.6-3.4-7.8-6.9-15.5-10.6-23.2-2.4-5-4.8-10-7.7-14.7-3.8-6.2-9.1-11.1-13.1-17-.9-1.3-2.3-3.2-2.2-4.8.3-2.8 3.2-3.5 5.5-3.5 4.1 0 8.3 1.8 11.7 3.9 5.8 3.5 10 8.7 13.8 14.2 3.6 5.2 6.9 10.5 10 16 1.8 3.1 3.2 7.1 5.4 9.9 1.7 2.1 4.9 3.1 7.3 4.5 5.8 3.3 13.6 7.6 14.7 15 .3 1.5 2.1.9 1.9-.5z" fill="#000"/><path d="M201.2 249.3c-12.6-6.8-25.1-13.5-37.7-20.2-5.9-3.2-11.9-7-18.4-8.7-10-2.7-20.4-2.7-29.3-8.6-9.2-6.1-18.9-12.5-29.2-16.6-6.6-2.6-13.8-4-20.7-5.7-9.2-2.2-18.5-4.4-27.7-6.6-5-1.2-20.6-2.8-15.2-11.7 3.2-5.3 11.5-4.1 16.7-3.7 5.5.4 10.9 1.1 16.4 1.7 5.2.7 10.5 1.4 15.7 2.1 1.8.3 3.6.5 5.4.9.6.1 1.2.3 1.8.3 1 .1.5.5.2-.5.4 1.6 2 .5 1.7-.9-.3-1.3-3.2-1.3-4.2-1.5-4.2-.7-8.5-1.3-12.7-1.9-9.9-1.4-20-2.8-30-3.1-4.6-.1-9.8.7-12.6 4.8-2.2 3.2-1.7 7.4.7 10.3 3.3 4 11.6 4.5 16.3 5.7 10.4 2.6 20.9 4.9 31.3 7.5 8.4 2.1 16.3 4.2 23.9 8.2 6 3.2 11.9 6.7 17.7 10.4 3.9 2.5 7.5 5.3 12 6.7 10.1 3 20.6 3.2 30 8.1 15.8 8.3 31.5 16.8 47.2 25.3 1.3.6 1.8-1.8.7-2.3z" fill="#000"/><path d="M108.2 192.499c-13.8-11-27.7-22-41.5-33.1-2.9-2.4-5.9-4.7-8.8-7.1-2.3-1.9-4.6-3.8-6.7-5.8-1.8-1.7-6.8-6.3-3.7-9.3 1.3-1.2 3.7-1.1 5.3-.9 8.7.7 17.8 5.9 25.1 10.3 5 3.1 9.9 6.6 14.6 10 8.5 6.2 16.9 12.6 25.2 19.2 1.1.9 1.8-1.4.9-2.2-8.4-6.7-17-13.2-25.7-19.6-5.5-4-11.1-8-17.1-11.4-7.2-4-16.2-9.2-24.8-9-4.6.1-7.8 3.5-6.2 8.2 2 5.6 8.5 9.8 12.9 13.4 8.7 7.1 17.5 14.1 26.2 21.1 7.7 6.2 15.4 12.3 23.2 18.5 1.3.8 2.1-1.5 1.1-2.3z" fill="#000"/><path d="M244.5 202.1c19.8 7.4 39.7 14.8 59.5 22.2 1.3.5 2.3-1.2.8-1.8-19.8-7.4-39.7-14.8-59.5-22.2-1.4-.5-2.4 1.2-.8 1.8z" fill="#000"/><path d="M203.1 271.899c17.8 8 35.6 16.1 53.3 24.1 1.2.5 1.6-1.9.5-2.4-17.8-8-35.6-16.1-53.3-24.1-1.3-.5-1.6 2-.5 2.4z" fill="#000"/><path d="M219.2 204.7s5.1-8.7 6.6-7.7c2.6 1.8-1.6 9.2-1.6 9.2l-5-1.5z" fill="#000"/><path d="M240.7 202.1c2.3-4.5 1.3 2.2 1 3.1-.9 3.1-2.2 6.2-3.4 9.2-3.5 8.5-7.6 16.8-11.8 25-4.1 7.8-8.4 15.6-13.4 22.9-1.8 2.6-3.7 5.4-6.1 7.5-.5.4-1.5 1.6-2.2 1.6-2.9.1-.8-4.9-.1-6.2.7-1.1-1.6-2-2.2-1-1.6 2.6-3 7.1.6 8.8 1.5.7 2.9.3 4.3-.5 5.5-3.4 9.3-10.9 12.5-16.2 9.4-15.5 18.7-32.6 24.2-50 .4-1.4 1.7-4.2.9-5.7-1.3-2.6-5.3-1.8-6.4.5-.8 1.2 1.5 2 2.1 1z" fill="#000"/><path d="M210.7 267.4s-6.4 5.8-7.8 4.9c-2.5-1.5 1.2-8.9 1.2-8.9l6.6 4z" fill="#000"/><path d="M192.8 247s-1.5 9.3 1.4 11.4c3.2 2.2 7.1-6.9 7.1-6.9l-8.5-4.5z" fill="#000"/><path d="M240.8 201.4s.7-1.5 1.1-1.1c.4.4.8 2.3.8 2.3l-1.9-1.2z" fill="#000"/><path d="M125.654 34.94c1.734-1.461 8.321-1.11 8.547 2.833.264 4.06 8.375 56.503 7.186 58.049-1.188 1.546-75.09 10.181-77.004 7.038-.535-.865-7.885-6.023-.847-13.974C81.25 68.97 125.654 34.94 125.654 34.94z" fill="#1A2E44"/><path d="M54.232 41.616l69.383-9c1.249-.142 2.617-.32 3.622.393 1.161.794 1.415 2.397 1.711 3.726 2.629 18.325 5.375 36.613 8.003 54.938a577.017 577.017 0 00-74.193 10.153c-1.212.259-2.58.437-3.505-.432-.54-.474-.65-1.217-.875-1.922-3.845-17.676-6.126-35.724-6.612-53.829" fill="#fff"/><path d="M54.138 42.94a57904.72 57904.72 0 0163.288-8.215c3.985-.5 7.476-2.135 10.15 2.578.954 1.767.795 5.314 1.006 7.19l2.272 15.59c1.626 10.746 3.136 21.529 4.763 32.276.437-.658 1.029-1.236 1.466-1.894-21.784 1.534-43.544 4.356-65.045 8.389-2.19.442-4.657 1.232-6.96 1.322-4.994.174-5.525-1.081-6.484-5.695-1.067-5.356-2.055-10.868-2.77-16.337-1.547-10.901-2.469-21.873-2.883-32.878-.057-1.795-2.688-.305-2.745 1.138.397 12.564 1.573 25.138 3.61 37.566.835 5.042.86 12.805 3.341 17.32 1.067 2.119 2.195 2.406 4.615 2.278 5.934-.475 12.08-2.313 17.827-3.375a478.44 478.44 0 0118.522-2.821c12.776-1.76 25.548-3.128 38.469-4.027.898-.028 1.612-1.034 1.466-1.894l-5.628-38.215c-.79-5.704-.744-12.841-2.709-18.17-.869-2.311-1.64-3.1-4.013-3.636-4.046-.907-10.117 1.166-14.101 1.665-6.329.86-12.814 1.64-19.143 2.502-12.814 1.64-25.472 3.362-38.286 5.003-1.207-.131-2.02 2.59-.028 2.34z" fill="#1A2E44"/><path d="M51.883 45.605l26.052 13.417 13.026 6.708c2.326 1.198 5.07 3.298 7.763 3.213 3.355-.037 6.752-3.585 8.998-5.47 3.19-2.575 6.15-5.465 8.955-8.435 5.177-5.672 9.542-11.86 13.328-18.642.639-1.24-1.048-3.68-1.964-2.09-3.27 5.967-7.122 11.733-11.708 16.827-3.993 4.516-13.568 15.87-20.142 14.348-3.5-.822-7.288-3.754-10.39-5.35l-10.855-5.592L52.151 42.8c-1.433-.836-1.508 2.167-.268 2.806z" fill="#1A2E44"/><path d="M128.802 39.11s-17.632 26.236-20.629 29.008c-3.035 2.656-9.9-.586-9.9-.586s11.595-7.468 14.24-10.127c2.646-2.66 15.331-19.67 15.331-19.67l.958 1.375z" fill="#1A2E44"/><path d="M110.006 33.418c-.483 5.16 2.106 10.083 5.572 12.641s7.742 3.022 11.868 2.703c2.371-.184 4.809-.637 7.003-1.956 2.195-1.318 4.146-3.5 4.982-6.39 1.409-4.615-.397-9.687-2.877-13.204a21.102 21.102 0 00-5.366-5.414c-3.182-2.316-17.462-6.51-20.947 7.804" fill="#22D172"/><path d="M109.209 33.39c-.406 10.72 7.965 17.314 18.231 16.431 10.097-.782 15.975-9.274 12.222-18.964-2.543-6.604-8.144-11.648-15.27-12.42-7.66-.82-12.878 3.646-14.793 10.86-.351 1.175 1.217 2.026 1.554.675 1.658-5.957 5.695-9.716 11.99-9.408 3.898.14 7.269 1.47 10.039 4.17 7.156 6.865 8.871 19.892-3.022 22.58-9.549 2.153-19.831-2.88-19.35-13.783.155-1.425-1.534-1.56-1.601-.14z" fill="#1A2E44"/><path d="M118.091 32.88c1.264 1.49 2.568 3.51 4.075 4.718.561.398 1.196.614 1.878.296 1.107-.528 2.018-2.453 2.653-3.385 1.268-1.865 2.625-3.737 3.894-5.6.796-1.123-1.264-1.493-1.817-.656-.952 1.4-1.991 2.804-2.943 4.203-.958 1.31-1.869 3.236-3.024 4.297l1.034-.345c-.446-.054-1.555-1.823-1.852-2.242-.676-.742-1.264-1.492-1.94-2.234-.689-.918-2.647.028-1.958.946v.001z" fill="#1A2E44"/><path d="M34.7 52.501c-6.5-.7-8.9-2.1-15.7-2l15.7 2z" fill="#fff"/><path d="M35 51.4c-5.3-.6-10.3-2-15.7-2-1.2 0-1.9 2.4-.6 2.4 5.4 0 10.4 1.4 15.7 2 1.2.1 1.9-2.3.6-2.4z" fill="#1A2E44"/><path d="M40.4 32.202c-6.1-2.1-9.5-3.8-13.4-8.1l13.4 8.1z" fill="#fff"/><path d="M41.2 31c-4.9-1.7-9.1-3.8-12.8-7.7-1.1-1.2-4.3.1-2.9 1.5 4 4.2 8.7 6.6 14.1 8.5 1.7.7 3.8-1.5 1.6-2.3z" fill="#1A2E44"/><path d="M59.6 18.4c-3.4-6-4.5-9.2-6.7-15.8l6.7 15.8z" fill="#fff"/><path d="M60.7 17.6c-2.8-4.9-4.8-10-6.6-15.4-.7-2-3.2-1.4-2.5.7 1.9 5.6 4 11 6.9 16.2 1.1 2.1 3.2.3 2.2-1.5z" fill="#1A2E44"/></svg>